<?xml version="1.0" standalone="no"?>
<!DOCTYPE svg PUBLIC "-//W3C//DTD SVG 20010904//EN"
 "http://www.w3.org/TR/2001/REC-SVG-20010904/DTD/svg10.dtd">
<svg version="1.0" xmlns="http://www.w3.org/2000/svg"
 width="700.000000pt" height="700.000000pt" viewBox="0 0 700.000000 700.000000"
 preserveAspectRatio="xMidYMid meet">
<metadata>
Created by potrace 1.11, written by Peter Selinger 2001-2013
</metadata>
<g transform="translate(0.000000,700.000000) scale(0.100000,-0.100000)"
fill="#000000" stroke="none">
<path d="M3250 6994 c-19 -2 -80 -9 -135 -15 -1354 -142 -2521 -1090 -2945
-2394 -255 -785 -223 -1653 90 -2414 227 -552 608 -1057 1070 -1418 779 -608
1731 -859 2703 -713 1244 188 2304 1050 2746 2232 94 253 161 523 196 798 23
174 30 522 16 706 -113 1410 -1064 2617 -2406 3054 -213 69 -410 113 -660 146
-104 14 -595 27 -675 18z m-821 -1465 l584 -112 106 26 c265 65 521 63 761 -7
l85 -24 615 118 c338 66 616 117 618 115 2 -2 -17 -297 -42 -655 -40 -570 -44
-654 -32 -673 29 -45 135 -296 174 -412 178 -536 199 -1096 56 -1525 -169
-508 -585 -827 -1229 -945 -49 -9 -100 -18 -112 -21 -22 -4 -23 -9 -23 -88 l0
-83 114 -44 114 -43 68 -88 67 -88 -63 -58 c-35 -31 -66 -58 -70 -60 -4 -1
-25 24 -46 58 l-39 60 -72 0 -73 0 0 -109 0 -109 -66 -41 c-36 -22 -67 -41
-70 -41 -2 0 -34 18 -69 41 l-65 41 0 109 0 109 -73 0 -73 0 -59 -60 c-33 -33
-63 -60 -67 -60 -4 0 -26 27 -50 60 l-42 60 -73 0 -73 0 0 -110 0 -109 -57
-37 c-31 -20 -62 -38 -69 -41 -7 -2 -42 15 -78 39 l-66 43 0 108 0 107 -73 0
-73 0 -59 -60 c-33 -33 -62 -60 -65 -60 -3 0 -25 27 -48 60 l-42 60 44 88 44
88 136 43 136 42 0 88 0 89 -97 17 c-683 122 -1129 479 -1288 1030 -126 438
-82 1007 120 1530 41 105 139 312 190 399 l24 41 -39 560 c-22 308 -41 582
-43 608 -4 45 -3 48 17 44 12 -3 284 -56 605 -118z"/>
<path d="M2485 4748 c-133 -48 -209 -190 -171 -320 32 -113 139 -192 256 -192
97 0 157 40 208 139 20 39 26 69 30 135 4 79 2 89 -25 140 -39 75 -105 110
-202 109 -36 0 -79 -5 -96 -11z"/>
<path d="M4239 4732 c-43 -22 -59 -38 -81 -81 -66 -127 -13 -324 105 -392 90
-51 229 -21 307 67 46 53 63 99 64 174 0 83 -38 159 -102 204 -60 43 -96 54
-173 55 -54 1 -77 -4 -120 -27z"/>
<path d="M3395 4656 l-91 -65 -67 -129 c-37 -71 -67 -132 -67 -135 0 -3 72
-55 160 -115 l159 -110 153 105 c84 58 157 109 161 113 5 4 -23 67 -61 140
l-69 131 -89 65 c-48 35 -90 64 -93 64 -3 0 -47 -29 -96 -64z"/>
<path d="M2310 3012 c0 -5 30 -46 173 -240 l98 -133 146 183 c80 101 139 184
131 185 -32 4 -548 10 -548 5z"/>
<path d="M3222 3010 c12 -29 273 -369 278 -363 42 48 282 355 279 357 -8 7
-560 13 -557 6z"/>
<path d="M4140 3012 c0 -8 241 -345 265 -370 3 -4 279 344 283 358 2 6 -72 10
-211 10 -118 0 -242 3 -276 6 -42 5 -61 3 -61 -4z"/>
<path d="M2812 2329 c30 -41 92 -125 137 -187 46 -62 87 -112 91 -110 12 5
283 349 278 353 -2 2 -129 7 -282 11 l-279 7 55 -74z"/>
<path d="M3680 2395 c0 -12 262 -360 271 -360 5 0 72 79 148 175 l139 175
-127 6 c-158 8 -431 11 -431 4z"/>
<path d="M3210 1314 l0 -71 113 -42 c61 -22 118 -41 126 -41 7 0 72 19 143 42
l129 41 -3 68 -3 68 -252 3 -253 3 0 -71z"/>
</g>
</svg>
