<svg fill="none" xmlns="http://www.w3.org/2000/svg" viewBox="0 0 82 94"><path d="M59.135 10.1C57.85 4.29 53.28 0 47 0c-7.456 0-13 8.544-13 16 0 1.82-.206 3.794-.409 5.74-.166 1.593-.33 3.168-.377 4.621L33.5 26l7.774 2.298 6.223 1.043 12.766.519C64.95 27.605 69 24.225 69 21c0-5.086-.424-10.134-9.865-10.9z" fill="#484343"/><path fill-rule="evenodd" clip-rule="evenodd" d="M0 67.5c0-14.471 13.493-32.545 30.982-38.215l7.721 3.05 7.26 1.05 5.782.36L55 37l2 4 1.5 6 2 2 4-2-2-6-2-4 5 3 2.5 3.5 2 3.5 3-2v-1.5l-.296-.361C78.347 49.584 82 57.234 82 64.5 82 81.897 61.054 93 42 93 14.5 96.5 0 84.897 0 67.5zm37.5-15L33 41l-8.5 10-12 1.5 7 9.5L17 75.5 27.5 69l12 6.5v-12l9.5-8.753L37.5 52.5z" fill="#484343"/></svg>