<svg fill="none" xmlns="http://www.w3.org/2000/svg" viewBox="0 0 44 57"><defs/><path fill-rule="evenodd" clip-rule="evenodd" d="M40.8.2L27.2 2.9A15.3 15.3 0 0022 2c-1.8 0-3.5.3-5.1.9L3.5.2l1 13.9A33 33 0 000 30.3c0 11.6 7 16.7 16 18v2l-3 1-1 2 1 1.5 1.5-1.5H16v2.5l1.5 1 1.5-1v-2.5h1.5l1 1.5 1.5-1.5h1.5v2.5l1.5 1 1.5-1v-2.5H29l1 1.5 1.5-1.5-1.5-2-2.5-1v-1.9c9.2-1.3 16-6.3 16-18.1 0-5.4-1.4-10.8-3.8-15.4l.1.1 1-14.8zM24.5 48.7a43.7 43.7 0 01-5.5 0v1.6l2.5 1 3-1v-1.6zm-13-32.4c1.6.3 2.7-.8 3-2.5.3-1.6-.2-3-1.9-3.4a3 3 0 10-1.2 5.9zm20.6 0c-1.6.3-2.7-.8-3-2.5-.3-1.6.2-3 1.9-3.4a3 3 0 111.1 5.9zM22 10.8l2 1.5 1.5 3-3.5 2.5-3.5-2.5 1.5-3 2-1.5zM9 30.2l3 4.2 3.2-4-6.1-.2zm18 11.2l-3-4.2 6.2.1-3.1 4.1zm-13-4.2l3 4.2 3.2-4-6.1-.2zm18-2.8l-3-4.2 6.2.1-3.1 4.1zm-13-4.2l3 4.2 3.2-4-6.2-.2z" fill="#262626"/></svg>