<svg fill="none" xmlns="http://www.w3.org/2000/svg" viewBox="0 0 44 57"><path fill-rule="evenodd" clip-rule="evenodd" d="M40.801.201L27.203 2.924A15.3 15.3 0 0022 2c-1.752 0-3.465.31-5.113.882L3.5.201l.936 13.86C1.665 18.861 0 24.593 0 30.304c0 11.63 6.906 16.669 16 18.07v1.93l-3 1-1 2 1 1.5 1.5-1.5H16v2.5l1.5 1 1.5-1v-2.5h1.5l1 1.5 1.5-1.5h1.5v2.5l1.5 1 1.5-1v-2.5H29l1 1.5 1.5-1.5-1.5-2-2.5-1v-1.861c9.21-1.301 16-6.31 16-18.139 0-5.377-1.403-10.773-3.798-15.39l.1.091L40.8.201zM24.5 48.735c-.82.047-1.654.069-2.5.069-1.015 0-2.016-.032-3-.1v1.6l2.5 1 3-1v-1.569zM11.44 16.279c1.625.328 2.717-.821 3.045-2.445.328-1.624-.232-3.108-1.857-3.436a3 3 0 10-1.187 5.881zm20.698 0c-1.624.328-2.716-.821-3.044-2.445-.328-1.624.232-3.108 1.857-3.436a3 3 0 111.187 5.881zM22 10.804l2 1.5 1.5 3-3.5 2.5-3.5-2.5 1.5-3 2-1.5zM9.05 30.201l3.003 4.221 3.15-4.111-6.153-.11zm18.003 11.221l-3.003-4.22 6.153.109-3.15 4.111zm-13.003-4.22l3.003 4.22 3.15-4.111-6.153-.11zm18.003-2.78l-3.003-4.22 6.153.109-3.15 4.111zm-13.003-4.22l3.003 4.22 3.15-4.111-6.153-.11z" fill="#262626"/></svg>