<svg width="60" height="53" fill="none" xmlns="http://www.w3.org/2000/svg"><path d="M30 18.5c5.865 7.217 5.906 19.668.758 24.113S12.304 40.806 6.439 33.59C.574 26.372-1.06 13.995 4.087 9.55S24.135 11.283 30 18.5z" fill="#C4C4C4"/><path d="M26.38 47.126c-3.805 3.908-11.071 6.648-14.104 3.509-3.034-3.139-.402-10.13 3.404-14.038 3.806-3.909 8.64-5.144 11.673-2.006 3.034 3.139 2.833 8.626-.973 12.535zM23.352 4.51c0 1.66-3.309 2.005-5.726 2.005-2.418 0-3.891-.845-3.891-2.507 0-1.661.862-3.008 4.753-3.008 2.418 0 4.864 1.848 4.864 3.51z" fill="#C4C4C4"/><path d="M26.38 6.014l-3.89-3.009-2.432-1.002v4.01l1.945 2.006 1.349 1.003.11 2.507.973 3.51L30 18.5l-.5-3.462-1.66-3.51V8.52l-1.46-2.506zM30 19c-5.865 7.217-5.906 19.168-.758 23.613s18.454-1.807 24.319-9.024c5.865-7.217 7.5-19.594 2.352-24.039S35.865 11.783 30 19z" fill="#C4C4C4"/><path d="M33.62 47.126c3.806 3.908 11.071 6.648 14.104 3.509 3.034-3.139.402-10.13-3.404-14.038-3.806-3.909-8.64-5.144-11.673-2.006-3.034 3.139-2.833 8.626.973 12.535zM36.648 4.51c0 1.66 3.309 2.005 5.726 2.005 2.418 0 3.891-.845 3.891-2.507 0-1.661-.862-3.008-4.753-3.008-2.418 0-4.864 1.848-4.864 3.51z" fill="#C4C4C4"/><path d="M33.62 6.014l3.89-3.009 2.432-1.002v4.01L37.997 8.02l-1.349 1.003-.11 2.507-.973 3.51L30 19v-3.962l2.16-3.51V8.52l1.46-2.506z" fill="#C4C4C4"/><path d="M30 18.5c5.865 7.217 5.906 19.668.758 24.113S12.304 40.806 6.439 33.59C.574 26.372-1.06 13.995 4.087 9.55S24.135 11.283 30 18.5zm0 0l-.5-3.462-1.66-3.51V8.52l-1.46-2.506-3.89-3.009-2.432-1.002v4.01l1.945 2.006 1.349 1.003.11 2.507.973 3.51L30 18.5zm0 .5c-5.865 7.217-5.906 19.168-.758 23.613s18.454-1.807 24.319-9.024c5.865-7.217 7.5-19.594 2.352-24.039S35.865 11.783 30 19zm0 0v-3.962l2.16-3.51V8.52l1.46-2.506 3.89-3.009 2.432-1.002v4.01L37.997 8.02l-1.349 1.003-.11 2.507-.973 3.51L30 19zm-3.62 28.126c-3.805 3.908-11.071 6.648-14.104 3.509-3.034-3.139-.402-10.13 3.404-14.038 3.806-3.909 8.64-5.144 11.673-2.006 3.034 3.139 2.833 8.626-.973 12.535zM23.353 4.51c0 1.66-3.309 2.005-5.726 2.005-2.418 0-3.891-.845-3.891-2.507 0-1.661.862-3.008 4.753-3.008 2.418 0 4.864 1.848 4.864 3.51zM33.62 47.126c3.806 3.908 11.071 6.648 14.104 3.509 3.034-3.139.402-10.13-3.404-14.038-3.806-3.909-8.64-5.144-11.673-2.006-3.034 3.139-2.833 8.626.973 12.535zM36.648 4.51c0 1.66 3.309 2.005 5.726 2.005 2.418 0 3.891-.845 3.891-2.507 0-1.661-.862-3.008-4.753-3.008-2.418 0-4.864 1.848-4.864 3.51z" stroke="#C4C4C4"/></svg>