<svg fill="none" xmlns="http://www.w3.org/2000/svg" viewBox="0 0 133 109"><path d="M34.7 20.8c6.6 10.9 5 23.9-3.3 29-8.5 5-20.6.4-27.2-10.5-6.7-11-5.2-24 3.3-29 8.4-5.1 20.6-.4 27.2 10.5z" fill="#F6F5E4"/><path d="M38.8 57.7c-4.2 7-13.5 9.4-18.8 5.9-5.3-3.5-4.2-12 0-19s7.7-27.3 13-23.8 10 30 5.8 37z" fill="#F6F5E4"/><path d="M42 19.8c-6.5 10.9-5 23.8 3.4 29 8.4 5 20.6.3 27.2-10.6 6.6-10.9 5.1-23.9-3.3-29-8.4-5-20.6-.4-27.2 10.6z" fill="#F6F5E4"/><path d="M37.3 56.6c4.2 7 13.4 9.4 18.7 5.9 5.3-3.5 4.2-12 0-19s-7.7-25.5-13-22-10 28.1-5.7 35.1z" fill="#F6F5E4"/><path d="M109.5 62c2.5 10-12 14-23 14s-20-10-20-15.5S82 54 93 54s16.5 2.5 16.5 8zm.2 38.3c2.1-6.5-2-6.8-11.2-6.8s-31 8-31 11.5 16 4 25.2 4 17-5.1 17-8.7z" fill="#67B7BD"/><path fill-rule="evenodd" clip-rule="evenodd" d="M71 108.5c24.5 0 37-12.8 37-25.5 2-8.5-11.5-24.5-36-27.5C53 55 35 68.3 35 81c0 17.5 18.6 27.5 36 27.5zm-21-24c3 .5 6-1.2 6.5-4.5s-1-6-4-6.5-5 1.2-5.5 4.5 0 6 3 6.5z" fill="#483C34"/><path d="M126.5 83.5c6 3.5 7 15.5 2.5 15.5-7.2 0-40-13-21-16-14-3 18.5-21.5 21-16.5 5.5 5.5 3 12-2.5 17z" fill="#483C34"/><path d="M113 73.7c0 2.6-2.2 4.8-5 4.8s-5-2.2-5-4.8 2.2 0 5 0 5-2.7 5 0zm-1 18.6c0-2.6-2.2-4.8-5-4.8s-5 2.2-5 4.8c0 2.7 2.2 0 5 0s5 2.7 5 0z" fill="#483C34"/><path d="M83.5 90c-1.5 2.5-5.6 8.5-10.5 8.5-5.5-.5-10 1.5-10-2.5 4.5-11 2-14.5 13.8-16 8.7-1 6.7 6 6.7 10z" fill="#67B7BD"/><path d="M16.2 1l-1 1.7v2.7l1 1H20l2.2-.5 1.3-.5 1.4.5 2.8 2.7 2.1 3.2 2.2 5.4 1.1 2.1 1.1 3.3L38 31l1.1-4.7-.5-5.4-.6-1-1-3.3-1.7-2.6-1.6-3.3-1.1-1.6-3.3-4.3L26 1.6l-2.2-1-2.1-.6h-2.8l-2.7 1z" fill="#4A3826"/><path d="M60 1l1.1 1.7v2.7l-1 1h-3.9L54 6l-1.5-.4-1.2.4-2.7 2.7-2.2 3.2-2.2 5.4-1 2.1-1.2 3.3-3.8 8.9-.5-10.6.5-1 1-3.3L41 14l1.7-3.3 1-1.6L47 4.8l3.3-3.2 2.2-1 2.2-.6h2.7L60 1zM27 12.6c-9.5-.7-12.7 0-16.5 2C7.2 16.2 3.5 19.3 0 25c-.5-7.3 4.6-15 11.7-16.6A20 20 0 0127 12.5z" fill="#4A3826"/><path d="M50 11.1c4 0 7-2.6 17 2.9 3.2 1.7 5.5 3.2 10 10 .5-7.3-4.6-15.1-11.7-16.7-5.1-1-11.2.7-15.3 3.8zM22 26a4 4 0 11-8 0 4 4 0 018 0zm4 13a3 3 0 11-6 0 3 3 0 016 0zm30-14a4 4 0 108 0 4 4 0 00-8 0zm-4 13a3 3 0 106 0 3 3 0 00-6 0z" fill="#4A3826"/></svg>