<svg fill="none" xmlns="http://www.w3.org/2000/svg" viewBox="0 0 133 109"><path d="M34.659 20.783c6.602 10.908 5.126 23.884-3.299 28.984-8.424 5.1-20.606.39-27.208-10.517C-2.451 28.343-.974 15.366 7.45 10.267c8.424-5.1 20.606-.391 27.209 10.516z" fill="#F6F5E4"/><path d="M38.758 57.738c-4.2 7.027-13.418 9.332-18.727 5.842-5.308-3.49-4.2-12.007 0-19.033 4.2-7.027 7.685-27.253 12.993-23.764 5.309 3.49 9.935 29.929 5.734 36.955z" fill="#F6F5E4"/><path d="M42.086 19.75c-6.602 10.907-5.125 23.884 3.299 28.983 8.424 5.1 20.606.391 27.208-10.516 6.603-10.908 5.126-23.884-3.298-28.984-8.424-5.1-20.606-.39-27.209 10.517z" fill="#F6F5E4"/><path d="M37.289 56.64c4.2 7.027 13.419 9.332 18.727 5.842 5.309-3.49 4.2-12.007 0-19.033-4.2-7.026-7.683-25.439-12.992-21.949-5.308 3.49-9.936 28.114-5.735 35.14z" fill="#F6F5E4"/><path d="M109.5 62c2.5 10-11.954 13.997-23 13.997s-20-9.974-20-15.497S81.954 54 93 54s16.5 2.477 16.5 8zM109.722 100.297c2.077-6.5-2.046-6.8-11.222-6.8s-31 7.91-31 11.5 16.016 4 25.192 4c9.176 0 17.03-5.11 17.03-8.7z" fill="#67B7BD"/><path fill-rule="evenodd" clip-rule="evenodd" d="M71 108.511c24.5 0 37-12.782 37-25.485 2-8.515-11.5-24.515-36-27.515-19.091-.5-37 12.797-37 25.5 0 17.5 18.603 27.5 36 27.5zm-21-24c3 .48 5.976-1.228 6.5-4.5.524-3.272-1-6.02-4-6.5-3-.48-4.976 1.228-5.5 4.5-.524 3.272 0 6.02 3 6.5z" fill="#483C34"/><path d="M126.5 83.51c6 3.5 7 15.501 2.5 15.501-7.18 0-40-13-21-15.985-14-3.015 18.5-21.529 21-16.529 5.5 5.5 3 12.014-2.5 17.014z" fill="#483C34"/><path d="M113 73.68c0 2.66-2.239 4.817-5 4.817s-5-2.157-5-4.817 2.239 0 5 0 5-2.66 5 0zM112 92.315c0-2.66-2.239-4.818-5-4.818s-5 2.157-5 4.818c0 2.66 2.239 0 5 0s5 2.66 5 0z" fill="#483C34"/><path d="M83.453 89.997c-1.5 2.5-5.574 8.5-10.5 8.5-5.45-.483-10 1.505-10-2.5 4.5-11 2-14.5 13.875-16 8.625-1.09 6.625 5.996 6.625 10z" fill="#67B7BD"/><path d="M16.198 1.074l-1.091 1.611V5.37l1.09 1.074h3.819l2.182-.537 1.326-.537 1.401.537 2.727 2.686 2.182 3.222 2.182 5.37 1.09 2.148 1.092 3.223L38.016 31l1.09-4.685-.544-5.37-.546-1.075-1.09-3.222-1.637-2.685-1.637-3.222-1.09-1.611-3.273-4.297-3.273-3.222L23.834.537 21.652 0h-2.727l-2.727 1.074z" fill="#4A3826"/><path d="M60.016 1.074l1.09 1.611V5.37l-1.09 1.074h-3.818l-2.182-.537-1.492-.407-1.235.407-2.727 2.686-2.182 3.222-2.182 5.37-1.091 2.148-1.091 3.223-3.818 8.944-.546-10.556.546-1.074 1.09-3.222 1.637-2.685 1.637-3.222 1.09-1.611 3.273-4.297 3.273-3.222L52.38.537 54.56 0h2.728l2.727 1.074zM27 12.5c-9.5-.685-12.672 0-16.5 2C7.166 16.242 3.5 19.333.037 25c-.521-7.284 4.578-15.089 11.7-16.65C16.825 7.235 22.93 9.378 27 12.5z" fill="#4A3826"/><path d="M50 11.148c4.016 0 7-2.685 17 2.815 3.19 1.754 5.5 3.222 9.963 10.037.521-7.292-4.578-15.105-11.7-16.668-5.088-1.116-11.193.69-15.263 3.816zM22 26a4 4 0 11-8 0 4 4 0 018 0zM26 39a3 3 0 11-6 0 3 3 0 016 0zM56 25a4 4 0 108 0 4 4 0 00-8 0zM52 38a3 3 0 106 0 3 3 0 00-6 0z" fill="#4A3826"/></svg>