<svg fill="none" xmlns="http://www.w3.org/2000/svg" viewBox="0 0 104 104"><circle cx="52" cy="52" r="52" fill="#74735F"/><path fill-rule="evenodd" clip-rule="evenodd" d="M77.34 20l-18.444 3.56a21.449 21.449 0 00-7.057-1.208c-2.375 0-4.7.404-6.935 1.153L26.747 20l1.27 18.12C24.258 44.395 22 51.89 22 59.356c0 15.206 9.367 21.792 21.701 23.625v2.522l-4.069 1.308-1.356 2.614 1.356 1.961 2.035-1.96H43.7v3.268L45.736 94l2.034-1.307v-3.269h2.035l1.356 1.961 2.034-1.96h2.035v3.268L57.264 94l2.035-1.307v-3.269h2.034l1.357 1.961 2.034-1.96-2.034-2.615-3.391-1.308V83.07C71.79 81.369 81 74.819 81 59.355c0-7.029-1.903-14.084-5.152-20.12l.135.119L77.34 20zM55.23 83.45a61.97 61.97 0 01-3.39.091c-1.377 0-2.736-.042-4.07-.13v2.091l3.39 1.308 4.07-1.308v-2.051zM37.517 41.02c2.203.429 3.684-1.074 4.13-3.198.444-2.123-.316-4.062-2.519-4.491-2.203-.429-4.349.945-4.794 3.068-.445 2.123.98 4.192 3.183 4.62zm28.073 0c-2.203.429-3.684-1.074-4.13-3.198-.444-2.123.316-4.062 2.519-4.491 2.203-.429 4.349.945 4.794 3.068.445 2.123-.98 4.192-3.183 4.62zm-13.75-7.158l2.712 1.96 2.034 3.923-4.747 3.268-4.747-3.268 2.034-3.922 2.713-1.961zM34.274 59.22l4.072 5.518 4.274-5.375-8.346-.143zm24.417 14.67l-4.072-5.519 8.345.143-4.273 5.376zm-17.636-5.519l4.073 5.519 4.273-5.376-8.346-.143zm24.418-3.633L61.4 59.221l8.346.143-4.273 5.375zm-17.636-5.518l4.072 5.518 4.274-5.375-8.346-.143z" fill="#F1F0DC"/></svg>