<?xml version="1.0" standalone="no"?>
<!DOCTYPE svg PUBLIC "-//W3C//DTD SVG 1.1//EN" "http://www.w3.org/Graphics/SVG/1.1/DTD/svg11.dtd" >
<svg xmlns="http://www.w3.org/2000/svg" xmlns:xlink="http://www.w3.org/1999/xlink" version="1.1">
<metadata>
Created by FontForge 20170924 at Fri May  8 08:27:29 2020
 By www-data
</metadata>
<defs>
<font id="nintendoP_Humming-E002pr-AlphaNum" horiz-adv-x="1000" vert-adv-y="1000" >
  <font-face 
    font-family="nintendoP_Humming-E002pr-AlphaNum"
    font-weight="400"
    font-stretch="normal"
    units-per-em="1000"
    panose-1="2 0 5 3 0 0 0 0 0 0"
    ascent="800"
    descent="-200"
    bbox="16 -100 989 860"
    underline-thickness="50"
    underline-position="-150"
    unicode-range="U+2160-325B"
  />
<missing-glyph horiz-adv-x="364" 
d="M33 0v666h265v-666h-265zM66 33h199v600h-199v-600z" />
    <glyph glyph-name=".notdef" horiz-adv-x="364" 
d="M33 0v666h265v-666h-265zM66 33h199v600h-199v-600z" />
    <glyph glyph-name=".null" horiz-adv-x="0" vert-adv-y="0" 
 />
    <glyph glyph-name="nonmarkingreturn" horiz-adv-x="333" 
 />
    <glyph glyph-name="Japan1.7555" unicode="&#x2460;" 
d="M980 380q0 -130 -64.5 -240.5t-175 -175t-240.5 -64.5t-240.5 64.5t-175 175t-64.5 240.5t64.5 240.5t175 175t240.5 64.5t240.5 -64.5t175 -175t64.5 -240.5zM922 379q0 175 -123.5 298.5t-298.5 123.5t-298.5 -123.5t-123.5 -298.5t123.5 -298t298.5 -123t298.5 123
t123.5 298zM448 119v427q0 5 -3 5t-7 -4q-5 -5 -22.5 -19.5t-45.5 -33.5t-41 -19q-18 0 -32 16.5t-14 37.5q0 27 23 43q101 68 131 95q34 29 76 29q31 0 51.5 -20.5t20.5 -62.5v-494q0 -32 -20 -50t-48 -18t-48.5 18t-20.5 50z" />
    <glyph glyph-name="Japan1.7556" unicode="&#x2461;" 
d="M980 380q0 -130 -64.5 -240.5t-175 -175t-240.5 -64.5t-240.5 64.5t-175 175t-64.5 240.5t64.5 240.5t175 175t240.5 64.5t240.5 -64.5t175 -175t64.5 -240.5zM922 379q0 175 -123.5 298.5t-298.5 123.5t-298.5 -123.5t-123.5 -298.5t123.5 -298t298.5 -123t298.5 123
t123.5 298zM674 66h-354q-31 0 -48.5 16.5t-17.5 40.5q0 32 29 56q29 23 93.5 83t84.5 78q42 36 80.5 86.5t38.5 91.5q0 36 -26 59.5t-73 23.5q-40 0 -76.5 -26t-50.5 -69q-9 -28 -46 -28q-20 0 -34.5 11t-14.5 31q0 55 69 117.5t175 62.5q97 0 161.5 -47t64.5 -135
q0 -39 -11.5 -71.5t-36.5 -59t-42.5 -41t-54 -38t-44.5 -29.5q-21 -15 -66.5 -43.5t-61.5 -41.5q-3 -2 -3 -4t2.5 -3t5.5 -1l3 -1q12 1 66 1q11 0 96.5 0.5t92.5 0.5q25 0 39.5 -18.5t14.5 -42.5t-14.5 -42t-40.5 -18z" />
    <glyph glyph-name="Japan1.7557" unicode="&#x2462;" 
d="M980 380q0 -130 -64.5 -240.5t-175 -175t-240.5 -64.5t-240.5 64.5t-175 175t-64.5 240.5t64.5 240.5t175 175t240.5 64.5t240.5 -64.5t175 -175t64.5 -240.5zM922 379q0 175 -123.5 298.5t-298.5 123.5t-298.5 -123.5t-123.5 -298.5t123.5 -298t298.5 -123t298.5 123
t123.5 298zM437 450h25q44 0 78.5 24t34.5 68q0 30 -27.5 49t-71.5 19q-82 0 -117 -61q-17 -29 -42 -29q-17 0 -30.5 13t-13.5 31q0 41 62.5 89t167.5 48q89 0 152 -41.5t63 -110.5q0 -41 -24.5 -80.5t-80.5 -57.5q57 -10 95.5 -53t38.5 -99q0 -96 -77.5 -150.5
t-195.5 -54.5q-97 0 -162 42.5t-65 85.5q0 19 14.5 32t32.5 13q21 0 32 -17q34 -51 141 -51q60 0 96 28t36 77q0 40 -34 66t-90 26q-7 0 -20 -0.5t-19 -0.5q-23 0 -36 14t-13 33q0 20 13 34t37 14z" />
    <glyph glyph-name="Japan1.7558" unicode="&#x2463;" 
d="M980 380q0 -130 -64.5 -240.5t-175 -175t-240.5 -64.5t-240.5 64.5t-175 175t-64.5 240.5t64.5 240.5t175 175t240.5 64.5t240.5 -64.5t175 -175t64.5 -240.5zM922 379q0 175 -123.5 298.5t-298.5 123.5t-298.5 -123.5t-123.5 -298.5t123.5 -298t298.5 -123t298.5 123
t123.5 298zM682 177h-54v-34q0 -32 -19 -49.5t-45 -17.5t-45 17.5t-19 49.5v34h-242q-67 0 -67 61q0 36 20 63l279 375q24 32 70 32q28 0 48 -15.5t20 -43.5v-368h53q23 0 36 -15.5t13 -37.5q0 -20 -12.5 -35.5t-35.5 -15.5zM498 280v62q0 4 12 191q0 1 -6 1h-1
q-13 -16 -96.5 -130.5t-83.5 -117.5q0 -6 11 -6h164z" />
    <glyph glyph-name="Japan1.7559" unicode="&#x2464;" 
d="M980 380q0 -130 -64.5 -240.5t-175 -175t-240.5 -64.5t-240.5 64.5t-175 175t-64.5 240.5t64.5 240.5t175 175t240.5 64.5t240.5 -64.5t175 -175t64.5 -240.5zM922 379q0 175 -123.5 298.5t-298.5 123.5t-298.5 -123.5t-123.5 -298.5t123.5 -298t298.5 -123t298.5 123
t123.5 298zM657 565h-255q-1 0 -4 -3t-3 -5l-14 -112q20 11 55.5 18.5t61.5 7.5q44 0 85.5 -11t79 -34.5t60.5 -65.5t23 -97q0 -97 -74.5 -155.5t-196.5 -58.5q-80 0 -147 33t-67 75q0 19 14.5 33t32.5 14q21 0 33 -18q13 -19 47.5 -28t70.5 -9q65 0 104 36.5t39 88.5
t-37 84.5t-92 32.5q-32 0 -63.5 -12t-48.5 -33q-11 -14 -37 -14q-18 0 -31.5 10t-13.5 29v6l30 239q4 37 22 51.5t54 14.5h271q28 0 43.5 -18t15.5 -42t-15 -40.5t-43 -16.5z" />
    <glyph glyph-name="Japan1.7560" unicode="&#x2465;" 
d="M980 380q0 -130 -64.5 -240.5t-175 -175t-240.5 -64.5t-240.5 64.5t-175 175t-64.5 240.5t64.5 240.5t175 175t240.5 64.5t240.5 -64.5t175 -175t64.5 -240.5zM922 379q0 175 -123.5 298.5t-298.5 123.5t-298.5 -123.5t-123.5 -298.5t123.5 -298t298.5 -123t298.5 123
t123.5 298zM375 448q52 43 141 43q111 0 169.5 -62.5t58.5 -148.5q0 -95 -65.5 -158t-181.5 -63q-74 0 -127.5 25t-81.5 68t-40.5 90.5t-12.5 103.5q0 181 80 270t204 89q87 0 138.5 -25t51.5 -58q0 -18 -13.5 -31.5t-30.5 -13.5q-15 0 -26 10q-35 32 -116 32q-52 0 -96 -45
t-52 -126zM499 139q99 0 99 144q0 55 -27 91t-75 36q-54 0 -86 -35.5t-32 -104.5q0 -54 32 -92.5t89 -38.5z" />
    <glyph glyph-name="Japan1.7561" unicode="&#x2466;" 
d="M980 380q0 -130 -64.5 -240.5t-175 -175t-240.5 -64.5t-240.5 64.5t-175 175t-64.5 240.5t64.5 240.5t175 175t240.5 64.5t240.5 -64.5t175 -175t64.5 -240.5zM922 379q0 175 -123.5 298.5t-298.5 123.5t-298.5 -123.5t-123.5 -298.5t123.5 -298t298.5 -123t298.5 123
t123.5 298zM607 518h-278q-29 0 -45 19.5t-16 47.5q0 27 16 47t44 20h353q32 0 51 -20.5t19 -53.5q0 -41 -27 -81q-135 -204 -285 -444q-16 -26 -43 -26q-22 0 -39.5 15.5t-17.5 36.5q0 14 8 26l262 400q2 3 2 7q0 6 -4 6z" />
    <glyph glyph-name="Japan1.7562" unicode="&#x2467;" 
d="M980 380q0 -130 -64.5 -240.5t-175 -175t-240.5 -64.5t-240.5 64.5t-175 175t-64.5 240.5t64.5 240.5t175 175t240.5 64.5t240.5 -64.5t175 -175t64.5 -240.5zM922 379q0 175 -123.5 298.5t-298.5 123.5t-298.5 -123.5t-123.5 -298.5t123.5 -298t298.5 -123t298.5 123
t123.5 298zM626 403q49 -17 90.5 -57.5t41.5 -92.5q0 -95 -72.5 -146t-186.5 -51q-115 0 -186.5 46t-71.5 136q0 55 39.5 97.5t95.5 61.5q-111 54 -111 140q0 81 71 123.5t167 42.5q98 0 163 -43t65 -121q0 -49 -32 -83.5t-73 -52.5zM541 449q23 10 45 35.5t22 54.5
q0 40 -30 65.5t-78 25.5q-46 0 -80 -19.5t-34 -49.5q0 -18 9.5 -33.5t32 -29t35 -19.5t44.5 -17.5t34 -12.5zM457 355q-31 -8 -61 -35t-30 -72q0 -53 38.5 -82.5t93.5 -29.5q129 0 129 87q0 26 -24 51t-58.5 42.5t-56 26.5t-31.5 12z" />
    <glyph glyph-name="Japan1.7563" unicode="&#x2468;" 
d="M980 380q0 -130 -64.5 -240.5t-175 -175t-240.5 -64.5t-240.5 64.5t-175 175t-64.5 240.5t64.5 240.5t175 175t240.5 64.5t240.5 -64.5t175 -175t64.5 -240.5zM922 379q0 175 -123.5 298.5t-298.5 123.5t-298.5 -123.5t-123.5 -298.5t123.5 -298t298.5 -123t298.5 123
t123.5 298zM626 312q-60 -51 -156 -51q-101 0 -158 58.5t-57 142.5q0 101 71 169t184 68q70 0 121.5 -27t79 -72.5t40 -96t12.5 -107.5q0 -164 -78 -255.5t-212 -91.5q-29 0 -60.5 5t-60.5 15t-47.5 27t-18.5 39q0 17 12 29.5t29 12.5q14 0 26 -8q39 -26 107 -26
q64 0 111.5 44.5t54.5 124.5zM497 356q53 0 87.5 35.5t34.5 98.5q0 51 -30.5 90t-78.5 39q-52 0 -82.5 -42t-30.5 -99q0 -60 29 -91t71 -31z" />
    <glyph glyph-name="Japan1.7564" unicode="&#x2469;" 
d="M980 380q0 -130 -64.5 -240.5t-175 -175t-240.5 -64.5t-240.5 64.5t-175 175t-64.5 240.5t64.5 240.5t175 175t240.5 64.5t240.5 -64.5t175 -175t64.5 -240.5zM922 379q0 175 -123.5 298.5t-298.5 123.5t-298.5 -123.5t-123.5 -298.5t123.5 -298t298.5 -123t298.5 123
t123.5 298zM649 74q-93 0 -130.5 73.5t-37.5 221.5q0 311 170 311q91 0 129.5 -81t38.5 -231q0 -148 -38 -221t-132 -73zM287 131v405q0 12 -5 12q-2 0 -7 -3q-10 -7 -32.5 -25.5t-39.5 -29.5q-8 -5 -18 -5q-15 0 -26 12.5t-11 29.5q0 22 21 36q33 22 115 93q22 19 53 19
q25 0 42 -16.5t17 -48.5v-479q0 -25 -16 -39.5t-38 -14.5q-23 0 -39 14t-16 40zM650 139q17 0 27.5 17t15 55t5.5 69t1 88q0 133 -9 189t-39 56q-12 0 -20.5 -10t-14 -30.5t-8.5 -41.5t-4.5 -52.5t-2 -54t-0.5 -55.5q0 -39 0.5 -59t1.5 -52t4 -49t8.5 -35.5t14 -26.5
t20.5 -8z" />
    <glyph glyph-name="Japan1.7565" unicode="&#x246a;" 
d="M980 380q0 -130 -64.5 -240.5t-175 -175t-240.5 -64.5t-240.5 64.5t-175 175t-64.5 240.5t64.5 240.5t175 175t240.5 64.5t240.5 -64.5t175 -175t64.5 -240.5zM922 379q0 175 -123.5 298.5t-298.5 123.5t-298.5 -123.5t-123.5 -298.5t123.5 -298t298.5 -123t298.5 123
t123.5 298zM636 126v405q0 12 -6 12q-2 0 -7 -3q-10 -7 -32.5 -25.5t-39.5 -29.5q-7 -5 -18 -5q-15 0 -25.5 12.5t-10.5 28.5q0 23 21 37q28 19 114 93q22 19 54 19q26 0 44.5 -16.5t18.5 -48.5v-479q0 -26 -16.5 -40t-39.5 -14t-40 14t-17 40zM309 126v405q0 12 -5 12
q-2 0 -7 -3q-10 -7 -32.5 -25.5t-39.5 -29.5q-7 -5 -18 -5q-15 0 -25.5 12.5t-10.5 28.5q0 23 21 37q28 19 114 93q22 19 54 19q26 0 44.5 -16.5t18.5 -48.5v-479q0 -26 -17 -40t-40 -14t-40 14.5t-17 39.5z" />
    <glyph glyph-name="Japan1.7566" unicode="&#x246b;" 
d="M980 380q0 -130 -64.5 -240.5t-175 -175t-240.5 -64.5t-240.5 64.5t-175 175t-64.5 240.5t64.5 240.5t175 175t240.5 64.5t240.5 -64.5t175 -175t64.5 -240.5zM922 379q0 175 -123.5 298.5t-298.5 123.5t-298.5 -123.5t-123.5 -298.5t123.5 -298t298.5 -123t298.5 123
t123.5 298zM750 85h-262q-21 0 -32 12t-11 31q0 26 20 49q56 63 151 177q67 82 67 161q0 38 -18 61t-48 23q-34 0 -56 -23t-39 -73q-8 -23 -34 -23q-15 0 -26 10t-11 27q0 15 10 40t30 54t58 49.5t85 20.5q78 0 126 -43t48 -123q0 -63 -27.5 -110.5t-97.5 -108.5
q-14 -12 -37.5 -33.5t-41 -37.5t-28.5 -23q-7 -4 -7 -10q0 -7 14 -7h2q37 1 68 1q7 0 48 0.5t49 0.5q25 0 39 -15t14 -36q0 -20 -14 -35.5t-39 -15.5zM282 131v405q0 12 -6 12q-2 0 -7 -3q-10 -7 -32.5 -25.5t-39.5 -29.5q-8 -5 -18 -5q-15 0 -25.5 12.5t-10.5 28.5
q0 23 21 37q42 28 115 93q22 19 53 19q25 0 42 -16.5t17 -48.5v-479q0 -25 -16 -39.5t-38 -14.5q-23 0 -39 14t-16 40z" />
    <glyph glyph-name="Japan1.7567" unicode="&#x246c;" 
d="M980 380q0 -130 -64.5 -240.5t-175 -175t-240.5 -64.5t-240.5 64.5t-175 175t-64.5 240.5t64.5 240.5t175 175t240.5 64.5t240.5 -64.5t175 -175t64.5 -240.5zM922 379q0 175 -123.5 298.5t-298.5 123.5t-298.5 -123.5t-123.5 -298.5t123.5 -298t298.5 -123t298.5 123
t123.5 298zM569 437h31q82 0 82 98q0 37 -14.5 56.5t-51.5 19.5q-46 0 -80 -62q-15 -27 -38 -27q-14 0 -25 10.5t-11 24.5q0 10 9.5 29t28.5 41t56 38t83 16q63 0 112 -37t49 -101q0 -43 -24.5 -83t-76.5 -50q57 -7 89 -46.5t32 -98.5q0 -91 -55 -141t-152 -50
q-62 0 -115.5 37.5t-53.5 72.5q0 17 12 29t27 12t24 -13q41 -57 105 -57q85 0 85 113q0 44 -24.5 68.5t-63.5 24.5q-7 0 -21 -0.5t-20 -0.5q-16 0 -25.5 12t-9.5 27t9.5 26.5t26.5 11.5zM282 131v405q0 12 -6 12q-2 0 -7 -3q-10 -7 -32.5 -25.5t-39.5 -29.5q-8 -5 -18 -5
q-15 0 -25.5 12.5t-10.5 28.5q0 23 21 37q33 22 115 93q22 19 53 19q25 0 42 -16.5t17 -48.5v-479q0 -25 -16 -39.5t-38 -14.5q-23 0 -39 14t-16 40z" />
    <glyph glyph-name="Japan1.7568" unicode="&#x246d;" 
d="M980 380q0 -130 -64.5 -240.5t-175 -175t-240.5 -64.5t-240.5 64.5t-175 175t-64.5 240.5t64.5 240.5t175 175t240.5 64.5t240.5 -64.5t175 -175t64.5 -240.5zM922 379q0 175 -123.5 298.5t-298.5 123.5t-298.5 -123.5t-123.5 -298.5t123.5 -298t298.5 -123t298.5 123
t123.5 298zM807 178h-38v-44q0 -28 -16 -43t-37 -15q-22 0 -37.5 15t-15.5 43v44h-169q-27 0 -40.5 15.5t-13.5 39.5q0 26 13 50l192 362q17 32 59 32q26 0 45.5 -15.5t19.5 -41.5v-351h35q19 0 29.5 -14t10.5 -33q0 -18 -9.5 -31t-27.5 -13zM282 131v405q0 12 -6 12
q-2 0 -7 -3q-10 -7 -32.5 -25.5t-39.5 -29.5q-8 -5 -18 -5q-15 0 -25.5 12.5t-10.5 28.5q0 23 21 37q33 22 115 93q22 19 53 19q25 0 42 -16.5t17 -48.5v-479q0 -25 -16 -39.5t-38 -14.5q-23 0 -39 14t-16 40zM662 266v76q0 80 8 167v3q0 9 -4 9q-2 0 -5 -7
q-21 -56 -112 -228q-3 -8 -3 -12q0 -8 8 -8h108z" />
    <glyph glyph-name="Japan1.7569" unicode="&#x246e;" 
d="M980 380q0 -130 -64.5 -240.5t-175 -175t-240.5 -64.5t-240.5 64.5t-175 175t-64.5 240.5t64.5 240.5t175 175t240.5 64.5t240.5 -64.5t175 -175t64.5 -240.5zM922 379q0 175 -123.5 298.5t-298.5 123.5t-298.5 -123.5t-123.5 -298.5t123.5 -298t298.5 -123t298.5 123
t123.5 298zM751 570h-176q-5 0 -9 -5.5t-4 -8.5l-14 -114q36 25 96 25q32 0 63 -10t59 -31.5t45 -61t17 -91.5q0 -87 -58.5 -143t-148.5 -56q-64 0 -115.5 29.5t-51.5 63.5q0 16 12.5 28.5t28.5 12.5q15 0 27 -13q37 -39 88 -39q91 0 91 127q0 110 -84 110q-52 0 -85 -39
q-9 -12 -30 -12q-16 0 -28.5 9t-12.5 23v3l28 234q4 32 21.5 45t49.5 13h191q23 0 36.5 -15t13.5 -36q0 -20 -13 -34t-37 -14zM282 131v405q0 12 -6 12q-2 0 -7 -3q-10 -7 -32.5 -25.5t-39.5 -29.5q-8 -5 -18 -5q-15 0 -25.5 12.5t-10.5 28.5q0 23 21 37q33 22 115 93
q22 19 53 19q25 0 42 -16.5t17 -48.5v-479q0 -25 -16 -39.5t-38 -14.5q-23 0 -39 14t-16 40z" />
    <glyph glyph-name="Japan1.7570" unicode="&#x246f;" 
d="M980 380q0 -130 -64.5 -240.5t-175 -175t-240.5 -64.5t-240.5 64.5t-175 175t-64.5 240.5t64.5 240.5t175 175t240.5 64.5t240.5 -64.5t175 -175t64.5 -240.5zM922 379q0 175 -123.5 298.5t-298.5 123.5t-298.5 -123.5t-123.5 -298.5t123.5 -298t298.5 -123t298.5 123
t123.5 298zM580 421q9 19 37.5 36.5t56.5 17.5q57 0 94 -30.5t49.5 -72t12.5 -93.5q0 -90 -48 -147.5t-135 -57.5q-51 0 -87 23t-55 63t-27 85t-8 98q0 171 57.5 254.5t154.5 83.5q55 0 91.5 -25t36.5 -54q0 -15 -10.5 -25.5t-24.5 -10.5q-13 0 -23 10q-20 21 -31 26.5
t-34 5.5q-42 0 -72.5 -47t-34.5 -140zM282 131v405q0 12 -6 12q-2 0 -7 -3q-10 -7 -32.5 -25.5t-39.5 -29.5q-8 -5 -18 -5q-15 0 -25.5 12.5t-10.5 28.5q0 23 21 37q42 28 115 93q22 19 53 19q25 0 42 -16.5t17 -48.5v-479q0 -25 -16 -39.5t-38 -14.5q-23 0 -39 14t-16 40z
M648 143q63 0 63 139q0 58 -12 89t-47 31q-32 0 -48.5 -37.5t-16.5 -95.5q0 -126 61 -126z" />
    <glyph glyph-name="Japan1.7571" unicode="&#x2470;" 
d="M980 380q0 -130 -64.5 -240.5t-175 -175t-240.5 -64.5t-240.5 64.5t-175 175t-64.5 240.5t64.5 240.5t175 175t240.5 64.5t240.5 -64.5t175 -175t64.5 -240.5zM922 379q0 175 -123.5 298.5t-298.5 123.5t-298.5 -123.5t-123.5 -298.5t123.5 -298t298.5 -123t298.5 123
t123.5 298zM700 547h-190q-25 0 -38 16.5t-13 40.5t13.5 42t37.5 18h241q30 0 49.5 -16t19.5 -45q0 -25 -14 -54q-30 -63 -93.5 -218t-100.5 -237q-10 -24 -39 -24q-19 0 -33.5 11.5t-14.5 30.5q0 9 5 22l173 394q4 10 4 12q0 7 -7 7zM297 125v405q0 12 -5 12q-2 0 -7 -3
q-10 -7 -32 -25t-40 -29q-7 -5 -18 -5q-15 0 -26 12.5t-11 28.5q0 22 21 36q28 18 115 94q22 19 53 19q25 0 42 -16.5t17 -48.5v-480q0 -25 -16 -39.5t-38 -14.5q-23 0 -39 14t-16 40z" />
    <glyph glyph-name="Japan1.7572" unicode="&#x2471;" 
d="M980 380q0 -130 -64.5 -240.5t-175 -175t-240.5 -64.5t-240.5 64.5t-175 175t-64.5 240.5t64.5 240.5t175 175t240.5 64.5t240.5 -64.5t175 -175t64.5 -240.5zM922 379q0 175 -123.5 298.5t-298.5 123.5t-298.5 -123.5t-123.5 -298.5t123.5 -298t298.5 -123t298.5 123
t123.5 298zM734 399q96 -47 96 -144q0 -86 -53.5 -133.5t-136.5 -47.5q-84 0 -133 42t-49 125q0 52 23.5 95t71.5 63q-30 13 -55.5 44.5t-25.5 85.5q0 68 50.5 109.5t120.5 41.5q74 0 122.5 -39t48.5 -110q0 -55 -24 -89.5t-56 -42.5zM282 131v405q0 12 -6 12q-2 0 -7 -3
q-10 -7 -32.5 -25.5t-39.5 -29.5q-8 -5 -18 -5q-15 0 -25.5 12.5t-10.5 28.5q0 23 21 37q42 28 115 93q22 19 53 19q25 0 42 -16.5t17 -48.5v-479q0 -25 -16 -39.5t-38 -14.5q-23 0 -39 14t-16 40zM670 442q42 23 42 86q0 95 -73 95q-33 0 -49 -22.5t-16 -50.5
q0 -69 96 -108zM620 361q-20 -1 -39.5 -28.5t-19.5 -79.5t19 -84t59 -32q82 0 82 91q0 50 -33 85t-68 48z" />
    <glyph glyph-name="Japan1.7573" unicode="&#x2472;" 
d="M980 380q0 -130 -64.5 -240.5t-175 -175t-240.5 -64.5t-240.5 64.5t-175 175t-64.5 240.5t64.5 240.5t175 175t240.5 64.5t240.5 -64.5t175 -175t64.5 -240.5zM922 379q0 175 -123.5 298.5t-298.5 123.5t-298.5 -123.5t-123.5 -298.5t123.5 -298t298.5 -123t298.5 123
t123.5 298zM708 332q-32 -56 -108 -56q-71 0 -109 54.5t-38 133.5q0 96 46 156.5t136 60.5q53 0 91.5 -25t59 -67t29.5 -89t9 -100q0 -326 -199 -326q-48 0 -96.5 24t-48.5 56q0 16 11 27t26 11q8 0 16 -5q46 -32 80 -32q51 0 72 40t23 137zM282 131v405q0 12 -6 12
q-2 0 -7 -3q-10 -7 -32.5 -25.5t-39.5 -29.5q-8 -5 -18 -5q-15 0 -25.5 12.5t-10.5 28.5q0 23 21 37q42 28 115 93q22 19 53 19q25 0 42 -16.5t17 -48.5v-479q0 -25 -16 -39.5t-38 -14.5q-23 0 -39 14t-16 40zM627 358q74 0 74 135q0 123 -66 123q-67 0 -67 -135
q0 -123 59 -123z" />
    <glyph glyph-name="Japan1.7574" unicode="&#x2473;" 
d="M980 380q0 -130 -64.5 -240.5t-175 -175t-240.5 -64.5t-240.5 64.5t-175 175t-64.5 240.5t64.5 240.5t175 175t240.5 64.5t240.5 -64.5t175 -175t64.5 -240.5zM922 379q0 175 -123.5 298.5t-298.5 123.5t-298.5 -123.5t-123.5 -298.5t123.5 -298t298.5 -123t298.5 123
t123.5 298zM667 73q-83 0 -116.5 73t-33.5 222q0 311 153 311q82 0 116.5 -81t34.5 -231q0 -148 -34.5 -221t-119.5 -73zM436 85h-208q-21 0 -36 16t-15 39q0 20 14 40q123 168 149.5 218t26.5 117q0 85 -54 85q-49 0 -73 -96q-6 -25 -35 -25q-15 0 -26 10t-11 27t10 43
t28 54.5t51.5 48t73.5 19.5q73 0 112 -42.5t39 -123.5q0 -73 -39 -135t-166 -189v-2q0 -4 5 -4q58 2 64 2h90q21 0 32 -15t11 -36t-11.5 -36t-31.5 -15zM669 138q11 0 19 8t12.5 26.5t7.5 35t4.5 48.5t1.5 52v59v55.5t-1.5 53.5t-4 53.5t-7.5 41t-12.5 31.5t-18.5 10
q-15 0 -25 -18.5t-14 -55t-5 -67t-1 -78.5q0 -148 7.5 -201.5t36.5 -53.5z" />
    <glyph glyph-name="Japan1.7575" unicode="&#x2160;" 
d="M410 16v688q0 43 26 66.5t63 23.5t64 -24t27 -66v-688q0 -42 -26.5 -66t-62.5 -24q-37 0 -64 23.5t-27 66.5z" />
    <glyph glyph-name="Japan1.7576" unicode="&#x2161;" 
d="M583 18v685q0 43 26 66.5t62 23.5t62.5 -24t26.5 -66v-685q0 -42 -26 -66t-62 -24t-62.5 24t-26.5 66zM240 18v685q0 43 26 66.5t62 23.5t62.5 -24t26.5 -66v-685q0 -42 -26 -66t-62 -24t-62.5 24t-26.5 66z" />
    <glyph glyph-name="Japan1.7577" unicode="&#x2162;" 
d="M687 18v685q0 43 25 66.5t59 23.5t59.5 -24t25.5 -66v-685q0 -42 -25 -66t-59 -24t-59.5 24t-25.5 66zM414 18v685q0 43 25 66.5t59 23.5t59.5 -24t25.5 -66v-685q0 -42 -25 -66t-59 -24t-59.5 24t-25.5 66zM144 18v685q0 43 25 66.5t59 23.5t59.5 -24t25.5 -66v-685
q0 -42 -25 -66t-59 -24t-59.5 24t-25.5 66z" />
    <glyph glyph-name="Japan1.7578" unicode="&#x2163;" 
d="M687 139l158 610q11 44 60 44q25 0 43.5 -14t18.5 -38q0 -10 -2 -15l-203 -714q-12 -41 -41 -63t-64 -22q-39 0 -71.5 25.5t-45.5 72.5l-185 659q-4 13 -4 28q0 37 27 59.5t62 22.5q29 0 51.5 -16t29.5 -46l144 -593q4 -11 12 -11q7 0 10 11zM136 18v685q0 43 24.5 66.5
t58.5 23.5t59 -23.5t25 -66.5v-685q0 -43 -24.5 -66.5t-58.5 -23.5t-59 24t-25 66z" />
    <glyph glyph-name="Japan1.7579" unicode="&#x2164;" 
d="M536 138l223 613q15 42 61 42q27 0 48 -16.5t21 -41.5q0 -12 -4 -21l-269 -698q-17 -43 -49 -66t-70 -23q-39 0 -72.5 24.5t-51.5 70.5l-255 649q-7 18 -7 36q0 38 29.5 62.5t67.5 24.5q61 0 81 -55l221 -601q3 -9 13 -9t13 9z" />
    <glyph glyph-name="Japan1.7580" unicode="&#x2165;" 
d="M712 18v685q0 43 24.5 66.5t58.5 23.5t59.5 -24t25.5 -66v-685q0 -42 -25 -66t-58 -24q-35 0 -60 23.5t-25 66.5zM387 140l156 609q11 44 60 44q25 0 44 -14t19 -38q0 -10 -2 -15l-202 -712q-12 -41 -41 -63t-65 -22q-38 0 -70 25t-46 72l-186 658q-4 13 -4 28
q0 37 27 59.5t62 22.5q29 0 51.5 -16t29.5 -46l145 -592q4 -11 12 -11q7 0 10 11z" />
    <glyph glyph-name="Japan1.7581" unicode="&#x2166;" 
d="M790 10v701q0 38 22 59.5t51 21.5q31 0 53 -21.5t22 -59.5v-701q0 -39 -22 -60.5t-51 -21.5q-31 0 -53 22t-22 60zM584 10v701q0 38 21.5 59.5t50.5 21.5q31 0 53 -21.5t22 -59.5v-701q0 -39 -22 -60.5t-51 -21.5q-30 0 -52 21.5t-22 60.5zM327 151l105 604q3 18 18 27.5
t35 9.5q24 0 42.5 -13.5t18.5 -36.5q0 -7 -1 -11l-137 -687q-11 -55 -42 -85.5t-69 -30.5q-39 0 -71 31.5t-44 90.5l-134 658q-2 12 -2 17q0 31 24.5 49.5t56.5 18.5q28 0 49.5 -14.5t26.5 -42.5l98 -585q2 -11 13 -11t13 11z" />
    <glyph glyph-name="Japan1.7582" unicode="&#x2167;" 
d="M819 1v720q0 34 18.5 53t42.5 19q26 0 44.5 -19t18.5 -53v-720q0 -34 -18.5 -53t-43.5 -19t-43.5 19t-18.5 53zM658 1v720q0 34 18 53t43 19q26 0 44.5 -19t18.5 -53v-720q0 -34 -18.5 -53t-43.5 -19t-43.5 19t-18.5 53zM494 1v720q0 34 18 53t43 19q26 0 44.5 -19
t18.5 -53v-720q0 -34 -18.5 -53t-43.5 -19t-43.5 19t-18.5 53zM276 143l93 614q2 16 15.5 25.5t31.5 9.5q22 0 38 -13t16 -36q0 -7 -1 -11l-122 -696q-9 -52 -36 -80t-60 -28q-34 0 -62.5 30t-38.5 84l-121 669q-1 5 -1 15q0 31 22 48.5t51 17.5q26 0 45.5 -14t23.5 -40
l84 -595q2 -11 11 -11t11 11z" />
    <glyph glyph-name="Japan1.7583" unicode="&#x2168;" 
d="M813 -41l-183 316l-184 -315q-20 -33 -52 -33q-22 0 -38.5 15.5t-16.5 38.5q0 19 12 38l210 348l-183 301q-14 22 -14 46q0 33 25 55.5t56 22.5q38 0 58 -34l151 -263l157 270q16 28 50 28q24 0 42 -15.5t18 -39.5q0 -22 -15 -44l-184 -287l214 -333q23 -35 23 -69
q0 -35 -26 -56.5t-59 -21.5q-42 0 -61 32zM142 18v685q0 43 24.5 66.5t58.5 23.5t59.5 -24t25.5 -66v-685q0 -42 -25 -66t-58 -24q-35 0 -60 23.5t-25 66.5z" />
    <glyph glyph-name="Japan1.7584" unicode="&#x2169;" 
d="M715 -35l-229 307l-257 -317q-23 -29 -54 -29q-25 0 -43 18.5t-18 43.5q0 20 15 39l275 335l-224 301q-20 27 -20 54q0 32 25 54.5t58 22.5q45 0 75 -40l196 -262l204 271q23 30 55 30q27 0 48.5 -19.5t21.5 -45.5q0 -21 -16 -41l-227 -284l261 -321q25 -31 25 -63
q0 -38 -29.5 -65.5t-67.5 -27.5q-45 0 -74 39z" />
    <glyph glyph-name="Japan1.8061" 
d="M989 33q0 -44 -31.5 -75t-75.5 -31t-75.5 31t-31.5 75t31.5 75.5t75.5 31.5t75.5 -31.5t31.5 -75.5zM412 -83q-167 0 -253 118t-86 314q0 214 87.5 334.5t254.5 120.5t253.5 -121.5t86.5 -335.5q0 -200 -86 -315t-257 -115zM414 14q40 0 69 20t44 49t24 77t11 88.5
t2 98.5q0 55 -1 87t-5 81.5t-13.5 78.5t-25.5 59t-42 44t-62 14q-34 0 -60 -15t-42 -44t-26.5 -61t-15.5 -77.5t-6.5 -81.5t-1.5 -84q0 -56 2 -96t11 -88t24.5 -78.5t44.5 -51t69 -20.5z" />
    <glyph glyph-name="Japan1.8062" unicode="&#x2488;" 
d="M989 33q0 -44 -31.5 -75t-75.5 -31t-75.5 31t-31.5 75t31.5 75.5t75.5 31.5t75.5 -31.5t31.5 -75.5zM357 15v586q0 18 -11 18q-6 0 -14 -6q-130 -97 -165 -97q-25 0 -41.5 18.5t-16.5 41.5q0 32 30 51q111 66 198 133q43 32 101 32q44 0 73.5 -25.5t29.5 -79.5v-672
q0 -42 -27.5 -65.5t-65.5 -23.5q-37 0 -64 23.5t-27 65.5z" />
    <glyph glyph-name="Japan1.8063" unicode="&#x2489;" 
d="M989 33q0 -44 -31.5 -75t-75.5 -31t-75.5 31t-31.5 75t31.5 75.5t75.5 31.5t75.5 -31.5t31.5 -75.5zM638 -63h-473q-32 0 -52 19.5t-20 48.5q0 35 31 66q1 1 56.5 52t113.5 107.5t98 101.5q64 72 96 124t32 112q0 56 -30.5 86t-89.5 30q-122 0 -173 -139q-14 -39 -60 -39
q-24 0 -42.5 15t-18.5 41q0 19 9.5 46.5t34 62t60 63.5t94 49t128.5 20q133 0 209.5 -66.5t76.5 -182.5q0 -34 -5 -62t-20 -55t-28.5 -46t-44.5 -47.5t-53.5 -47t-68.5 -54.5q-103 -81 -208 -146q-5 -3 -5 -9q0 -10 12 -10l124 2l216 4h2q39 0 61 -21.5t22 -51.5
q0 -29 -22 -51t-62 -22z" />
    <glyph glyph-name="Japan1.8064" unicode="&#x248a;" 
d="M989 33q0 -44 -31.5 -75t-75.5 -31t-75.5 31t-31.5 75t31.5 75.5t75.5 31.5t75.5 -31.5t31.5 -75.5zM327 446h24q75 0 114.5 37t39.5 109q0 54 -35 79.5t-86 25.5q-45 0 -90.5 -21.5t-68.5 -67.5q-21 -40 -55 -40q-23 0 -40.5 16t-17.5 37q0 16 19 44t54 59.5t98 54.5
t138 23q122 0 198 -54t76 -143q0 -37 -12 -71t-49 -69.5t-97 -52.5l-2 -1h2q92 -10 148 -70.5t56 -140.5q0 -133 -96.5 -207.5t-261.5 -74.5q-135 0 -222 61t-87 111q0 23 16.5 38t38.5 15q29 0 47 -25q56 -76 197 -76q81 0 124 44.5t43 120.5q0 55 -43 93.5t-112 38.5h-2
q-10 0 -29 -1t-28 -1q-26 0 -41.5 16.5t-15.5 38.5t15 38t43 16z" />
    <glyph glyph-name="Japan1.8065" unicode="&#x248b;" 
d="M989 33q0 -44 -31.5 -75t-75.5 -31t-75.5 31t-31.5 75t31.5 75.5t75.5 31.5t75.5 -31.5t31.5 -75.5zM704 68h-75v-53q0 -42 -24.5 -65t-58.5 -23q-33 0 -57.5 23t-24.5 65v53h-315q-42 0 -61.5 22.5t-19.5 57.5q0 46 22 76l367 525q31 45 91 45q34 0 57.5 -20t23.5 -57
v-514h72q30 0 46.5 -20.5t16.5 -48.5q0 -27 -16 -46.5t-44 -19.5zM463 201v91q0 116 11 264v5q0 11 -3 11t-9 -9q-58 -91 -107 -158q-82 -109 -133 -181q-3 -6 -3 -10q0 -13 14 -13h230z" />
    <glyph glyph-name="Japan1.8066" unicode="&#x248c;" 
d="M989 33q0 -44 -31.5 -75t-75.5 -31t-75.5 31t-31.5 75t31.5 75.5t75.5 31.5t75.5 -31.5t31.5 -75.5zM616 639h-322q-4 0 -8 -4.5t-6 -8.5t-2 -5l-23 -166q51 36 157 36q62 0 117.5 -15.5t103 -47t75.5 -88.5t28 -132q0 -131 -101.5 -210.5t-263.5 -79.5q-106 0 -191.5 46
t-85.5 100q0 24 17 41t39 17q26 0 46 -24q22 -27 65 -46t86 -19q89 0 141 54t52 135q0 79 -45.5 123t-126.5 44q-85 0 -140 -61q-12 -13 -41 -13q-25 0 -44 12t-19 34v6l44 337q6 44 27.5 61.5t68.5 17.5h352q33 0 51.5 -22t18.5 -51t-18.5 -50t-51.5 -21z" />
    <glyph glyph-name="Japan1.8067" unicode="&#x248d;" 
d="M989 33q0 -44 -31.5 -75t-75.5 -31t-75.5 31t-31.5 75t31.5 75.5t75.5 31.5t75.5 -31.5t31.5 -75.5zM264 438q26 30 82 49t115 19q72 0 129 -25t91.5 -66.5t52 -91.5t17.5 -103q0 -130 -87 -216t-234 -86q-93 0 -162 34t-106.5 92t-55.5 124.5t-18 142.5
q0 128 30.5 225.5t84 154t119 84t141.5 27.5q116 0 176 -34.5t60 -72.5q0 -23 -16.5 -39.5t-39.5 -16.5q-18 0 -35 13q-35 28 -64.5 36t-74.5 8q-67 0 -132.5 -67.5t-72.5 -190.5zM432 10q71 0 102 59.5t31 154.5q0 77 -40.5 133.5t-104.5 56.5q-73 0 -111.5 -56t-38.5 -153
q0 -83 44 -139t118 -56z" />
    <glyph glyph-name="Japan1.8068" unicode="&#x248e;" 
d="M989 33q0 -44 -31.5 -75t-75.5 -31t-75.5 31t-31.5 75t31.5 75.5t75.5 31.5t75.5 -31.5t31.5 -75.5zM553 610h-354q-41 0 -64 25.5t-23 60.5t22.5 61t62.5 26h440q40 0 67.5 -28t27.5 -73q0 -51 -37 -109q-64 -99 -196.5 -299.5t-203.5 -309.5q-25 -39 -62 -39
q-26 0 -45.5 19t-19.5 44q0 16 11 33l380 560q6 9 6 16q0 6 -4 9.5t-8 3.5z" />
    <glyph glyph-name="Japan1.8069" unicode="&#x248f;" 
d="M989 33q0 -44 -31.5 -75t-75.5 -31t-75.5 31t-31.5 75t31.5 75.5t75.5 31.5t75.5 -31.5t31.5 -75.5zM575 392q70 -30 123.5 -83t53.5 -121q0 -134 -91.5 -202t-246.5 -68q-150 0 -244.5 62t-94.5 183q0 77 43 136.5t120 92.5q-25 12 -42 24t-38.5 33.5t-33 54.5t-11.5 75
q0 69 45 121.5t113.5 77.5t147.5 25q126 0 210 -59.5t84 -161.5q0 -72 -42 -124.5t-96 -65.5zM465 453q28 8 55.5 42.5t27.5 79.5q0 64 -35 102t-100 38q-64 0 -101.5 -28t-37.5 -75q0 -26 15 -50t32 -38.5t49.5 -31t47.5 -22.5t47 -17zM352 336q-33 -2 -71 -44t-38 -110
q0 -83 47.5 -127t121.5 -44q165 0 165 132q0 33 -21.5 63t-62 56t-69.5 40.5t-72 33.5z" />
    <glyph glyph-name="Japan1.8070" unicode="&#x2490;" 
d="M989 33q0 -44 -31.5 -75t-75.5 -31t-75.5 31t-31.5 75t31.5 75.5t75.5 31.5t75.5 -31.5t31.5 -75.5zM566 276q-88 -65 -211 -65q-132 0 -203.5 80.5t-71.5 197.5q0 135 93.5 224.5t236.5 89.5q91 0 158 -37t103.5 -99t53 -131t16.5 -146q0 -225 -101.5 -349t-278.5 -124
q-87 0 -159 30.5t-72 78.5q0 22 15.5 37.5t37.5 15.5q16 0 32 -10q55 -37 129 -37q34 0 65.5 9.5t67 33.5t59.5 75.5t30 125.5zM393 319q76 0 118.5 55.5t42.5 149.5q0 77 -38 134.5t-107 57.5q-73 0 -109.5 -61.5t-36.5 -148.5q0 -76 36 -131.5t94 -55.5z" />
    <glyph glyph-name="Japan1.8071" unicode="&#x2474;" 
d="M838 -66q-10 -14 -23 -14q-8 0 -14 6t-6 14q0 6 3 12q55 97 82 210.5t27 217.5q0 102 -27 216.5t-82 211.5q-3 6 -3 12q0 8 6 13.5t14 5.5q13 0 23 -13q141 -187 141 -446q0 -260 -141 -446zM442 47v545q0 15 -7 15q-3 0 -10 -5q-15 -11 -49 -39t-61 -44q-15 -9 -29 -9
q-21 0 -36.5 17.5t-15.5 39.5q0 31 29 51q82 55 164 124q37 30 86 30q37 0 61 -23t24 -73v-629q0 -41 -23 -63.5t-55 -22.5t-55 22.5t-23 63.5zM185 -80q-13 0 -23 14q-141 186 -141 446q0 259 141 446q10 13 23 13q8 0 14 -5.5t6 -13.5q0 -6 -3 -12q-55 -97 -82 -211.5
t-27 -216.5q0 -104 27 -217.5t82 -210.5q3 -6 3 -12q0 -8 -6 -14t-14 -6z" />
    <glyph glyph-name="Japan1.8072" unicode="&#x2475;" 
d="M838 -66q-10 -14 -23 -14q-8 0 -14 6t-6 14q0 6 3 12q55 97 82 210.5t27 217.5q0 102 -27 216.5t-82 211.5q-3 6 -3 12q0 8 6 13.5t14 5.5q13 0 23 -13q141 -187 141 -446q0 -260 -141 -446zM690 -17h-388q-36 0 -55.5 18t-19.5 46q0 40 34 77q34 39 110 119.5t100 108.5
q40 46 61 73t38 66t17 77q0 56 -27 85.5t-76 29.5t-85.5 -33t-55.5 -95q-6 -17 -20.5 -27t-31.5 -10q-21 0 -36.5 14t-15.5 38t15 59.5t45 74.5t86 66.5t126 27.5q116 0 182 -64.5t66 -177.5q0 -57 -24 -105t-60 -83.5t-108 -93.5q-25 -20 -64.5 -52.5t-65.5 -53.5t-40 -30
q-3 -2 -3 -7q0 -12 8 -12q18 0 50 0.5t52 1.5l186 4h2q35 0 55.5 -21.5t20.5 -49.5q0 -29 -20.5 -50t-57.5 -21zM185 -80q-13 0 -23 14q-141 186 -141 446q0 259 141 446q10 13 23 13q8 0 14 -5.5t6 -13.5q0 -6 -3 -12q-55 -97 -82 -211.5t-27 -216.5q0 -104 27 -217.5
t82 -210.5q3 -6 3 -12q0 -8 -6 -14t-14 -6z" />
    <glyph glyph-name="Japan1.8073" unicode="&#x2476;" 
d="M838 -66q-10 -14 -23 -14q-8 0 -14 6t-6 14q0 6 3 12q55 97 82 210.5t27 217.5q0 102 -27 216.5t-82 211.5q-3 6 -3 12q0 8 6 13.5t14 5.5q13 0 23 -13q141 -187 141 -446q0 -260 -141 -446zM426 463h21q129 0 129 133q0 97 -100 97q-38 0 -77 -20.5t-57 -59.5
q-17 -36 -49 -36q-20 0 -35 14t-15 34q0 17 16.5 44t46.5 56t84 50t118 21q105 0 169 -52t64 -135q0 -136 -118 -178q-3 0 -3 -2q1 -1 2 -1q73 -14 115.5 -69.5t42.5 -127.5q0 -125 -82.5 -195.5t-223.5 -70.5q-117 0 -190 57.5t-73 102.5q0 22 15.5 37t34.5 15q22 0 37 -21
q47 -70 168 -70q69 0 105.5 40.5t36.5 111.5q0 50 -36.5 85t-94.5 35h-2q-9 0 -25.5 -0.5t-24.5 -0.5q-23 0 -36.5 16t-13.5 37q0 22 13.5 37.5t37.5 15.5zM185 -80q-13 0 -23 14q-141 186 -141 446q0 259 141 446q10 13 23 13q8 0 14 -5.5t6 -13.5q0 -6 -3 -12
q-55 -97 -82 -211.5t-27 -216.5q0 -104 27 -217.5t82 -210.5q3 -6 3 -12q0 -8 -6 -14t-14 -6z" />
    <glyph glyph-name="Japan1.8074" unicode="&#x2477;" 
d="M838 -66q-10 -14 -23 -14q-8 0 -14 6t-6 14q0 6 3 12q55 97 82 210.5t27 217.5q0 102 -27 216.5t-82 211.5q-3 6 -3 12q0 8 6 13.5t14 5.5q13 0 23 -13q141 -187 141 -446q0 -260 -141 -446zM740 105h-65v-57q0 -35 -21 -55t-50 -20q-28 0 -48.5 20t-20.5 55v57h-267
q-39 0 -58.5 20t-19.5 51q0 38 26 79l315 490q26 42 77 42q28 0 47.5 -19t19.5 -54v-479h63q30 0 46.5 -19.5t16.5 -46.5q0 -26 -16 -45t-45 -19zM185 -80q-13 0 -23 14q-141 186 -141 446q0 259 141 446q10 13 23 13q8 0 14 -5.5t6 -13.5q0 -6 -3 -12q-55 -97 -82 -211.5
t-27 -216.5q0 -104 27 -217.5t82 -210.5q3 -6 3 -12q0 -8 -6 -14t-14 -6zM534 233v84q0 86 11 245v7q0 6 -1 6t-6 -8q-10 -18 -43 -70t-66.5 -103t-63 -96.5t-30.5 -46.5q0 -1 -0.5 -2t-0.5 -2q0 -14 8 -14h192z" />
    <glyph glyph-name="Japan1.8075" unicode="&#x2478;" 
d="M838 -66q-10 -14 -23 -14q-8 0 -14 6t-6 14q0 6 3 12q55 97 82 210.5t27 217.5q0 102 -27 216.5t-82 211.5q-3 6 -3 12q0 8 6 13.5t14 5.5q13 0 23 -13q141 -187 141 -446q0 -260 -141 -446zM677 638h-274q-10 0 -12 -16l-19 -149q47 32 132 32q54 0 101.5 -14.5
t87.5 -44.5t63 -83.5t23 -124.5q0 -122 -87 -197.5t-224 -75.5q-95 0 -166 43.5t-71 93.5q0 23 15.5 39.5t35.5 16.5q23 0 38 -21q19 -25 56 -43t73 -18q75 0 118 50.5t43 125.5q0 73 -37.5 113t-105.5 40q-72 0 -118 -56q-10 -13 -37 -13q-21 0 -37 11t-16 33v7l37 315
q5 42 22.5 59t57.5 17h301q31 0 48.5 -21t17.5 -49t-17.5 -49t-48.5 -21zM185 -80q-13 0 -23 14q-141 186 -141 446q0 259 141 446q10 13 23 13q8 0 14 -5.5t6 -13.5q0 -6 -3 -12q-55 -97 -82 -211.5t-27 -216.5q0 -104 27 -217.5t82 -210.5q3 -6 3 -12q0 -8 -6 -14t-14 -6z
" />
    <glyph glyph-name="Japan1.8076" unicode="&#x2479;" 
d="M838 -66q-10 -14 -23 -14q-8 0 -14 6t-6 14q0 6 3 12q55 97 82 210.5t27 217.5q0 102 -27 216.5t-82 211.5q-3 6 -3 12q0 8 6 13.5t14 5.5q13 0 23 -13q141 -187 141 -446q0 -260 -141 -446zM364 460q27 26 74 43t95 17q81 0 139 -41t83 -100.5t25 -129.5
q0 -120 -75 -201.5t-200 -81.5q-80 0 -139.5 32t-91.5 86.5t-47 117t-15 133.5q0 121 26 212t72 144t102 79t121 26q56 0 98.5 -11t63.5 -28t30.5 -32.5t9.5 -28.5q0 -22 -15 -37.5t-35 -15.5q-17 0 -29 11q-30 26 -54.5 33t-63.5 7q-58 0 -112.5 -61t-61.5 -173zM185 -80
q-13 0 -23 14q-141 186 -141 446q0 259 141 446q10 13 23 13q8 0 14 -5.5t6 -13.5q0 -6 -3 -12q-55 -97 -82 -211.5t-27 -216.5q0 -104 27 -217.5t82 -210.5q3 -6 3 -12q0 -8 -6 -14t-14 -6zM507 54q59 0 86 59t27 141q0 73 -29 124.5t-81 51.5q-58 0 -99.5 -54t-41.5 -140
q0 -75 37 -128.5t101 -53.5z" />
    <glyph glyph-name="Japan1.8077" unicode="&#x247a;" 
d="M838 -66q-10 -14 -23 -14q-8 0 -14 6t-6 14q0 6 3 12q55 97 82 210.5t27 217.5q0 102 -27 216.5t-82 211.5q-3 6 -3 12q0 8 6 13.5t14 5.5q13 0 23 -13q141 -187 141 -446q0 -260 -141 -446zM627 591h-298q-39 0 -60.5 24.5t-21.5 57.5q0 34 21.5 59t59.5 25h368
q36 0 62 -28.5t26 -73.5q0 -46 -30 -99q-52 -90 -163.5 -274t-175.5 -292q-23 -40 -60 -40q-23 0 -39.5 15.5t-16.5 37.5q0 14 9 29q62 100 142.5 233.5t129.5 217.5l50 84q5 10 5 14q0 10 -8 10zM185 -80q-13 0 -23 14q-141 186 -141 446q0 259 141 446q10 13 23 13
q8 0 14 -5.5t6 -13.5q0 -6 -3 -12q-55 -97 -82 -211.5t-27 -216.5q0 -104 27 -217.5t82 -210.5q3 -6 3 -12q0 -8 -6 -14t-14 -6z" />
    <glyph glyph-name="Japan1.8078" unicode="&#x247b;" 
d="M838 -66q-10 -14 -23 -14q-8 0 -14 6t-6 14q0 6 3 12q55 97 82 210.5t27 217.5q0 102 -27 216.5t-82 211.5q-3 6 -3 12q0 8 6 13.5t14 5.5q13 0 23 -13q141 -187 141 -446q0 -260 -141 -446zM644 411q50 -19 98 -73t48 -116q0 -127 -79.5 -192t-210.5 -65
q-128 0 -209 58.5t-81 173.5q0 71 38.5 130t97.5 84q-15 8 -29.5 19.5t-33 32.5t-30 53t-11.5 70q0 94 79.5 152.5t183.5 58.5q111 0 181 -55t70 -153q0 -66 -33 -114.5t-79 -63.5zM185 -80q-13 0 -23 14q-141 186 -141 446q0 259 141 446q10 13 23 13q8 0 14 -5.5t6 -13.5
q0 -6 -3 -12q-55 -97 -82 -211.5t-27 -216.5q0 -104 27 -217.5t82 -210.5q3 -6 3 -12q0 -8 -6 -14t-14 -6zM543 470q23 8 48 39.5t25 72.5q0 61 -30.5 96t-85.5 35q-51 0 -85.5 -27.5t-34.5 -68.5q0 -44 37.5 -78.5t125.5 -68.5zM448 358q-29 -2 -61.5 -41t-32.5 -102
q0 -75 41 -117t104 -42q26 0 49 5.5t45 18t35 37.5t13 61q0 90 -193 180z" />
    <glyph glyph-name="Japan1.8079" unicode="&#x247c;" 
d="M838 -66q-10 -14 -23 -14q-8 0 -14 6t-6 14q0 6 3 12q55 97 82 210.5t27 217.5q0 102 -27 216.5t-82 211.5q-3 6 -3 12q0 8 6 13.5t14 5.5q13 0 23 -13q141 -187 141 -446q0 -260 -141 -446zM631 297q-78 -57 -178 -57q-113 0 -174.5 74t-61.5 183q0 127 80.5 214.5
t202.5 87.5q78 0 135.5 -35t88 -94t44.5 -123.5t14 -136.5q0 -211 -87 -328t-237 -117q-77 0 -140 32t-63 73q0 21 15 36t35 15q16 0 29 -10q46 -34 110 -34q83 0 132.5 57.5t54.5 162.5zM185 -80q-13 0 -23 14q-141 186 -141 446q0 259 141 446q10 13 23 13q8 0 14 -5.5
t6 -13.5q0 -6 -3 -12q-55 -97 -82 -211.5t-27 -216.5q0 -104 27 -217.5t82 -210.5q3 -6 3 -12q0 -8 -6 -14t-14 -6zM485 345q62 0 100 52t38 138q0 72 -32.5 125t-91.5 53q-62 0 -93.5 -56.5t-31.5 -137.5q0 -71 31 -122.5t80 -51.5z" />
    <glyph glyph-name="Japan1.8080" unicode="&#x247d;" 
d="M838 -66q-10 -14 -23 -14q-8 0 -14 6t-6 14q0 6 3 12q55 97 82 210.5t27 217.5q0 102 -27 216.5t-82 211.5q-3 6 -3 12q0 8 6 13.5t14 5.5q13 0 23 -13q141 -187 141 -446q0 -260 -141 -446zM625 -35q-56 0 -93 28t-56 85t-26.5 125t-7.5 166q0 206 42 315.5t143 109.5
q54 0 90.5 -29.5t56.5 -89t28 -133t8 -175.5q0 -77 -5 -135.5t-17.5 -110.5t-33 -85t-53 -52t-76.5 -19zM270 28v594q0 14 -5 14q-3 0 -7 -6q-35 -49 -49 -61.5t-27 -12.5q-17 0 -30.5 13t-13.5 32t17 39q73 80 102 120q20 27 60 27q27 0 44.5 -19t17.5 -61v-679
q0 -26 -16 -41t-39 -15q-22 0 -38 15t-16 41zM185 -80q-13 0 -23 14q-141 186 -141 446q0 259 141 446q10 13 23 13q8 0 14 -5.5t6 -13.5q0 -6 -3 -12q-55 -97 -82 -211.5t-27 -216.5q0 -104 27 -217.5t82 -210.5q3 -6 3 -12q0 -8 -6 -14t-14 -6zM626 53q39 0 48.5 69
t9.5 245q0 59 -0.5 88t-2 77t-5 72.5t-9.5 51.5t-16 38.5t-24 11.5t-24.5 -13t-17 -41.5t-10 -55t-5 -73.5t-2 -75t-0.5 -80q0 -155 10.5 -235t47.5 -80z" />
    <glyph glyph-name="Japan1.8081" unicode="&#x247e;" 
d="M838 -66q-10 -14 -23 -14q-8 0 -14 6t-6 14q0 6 3 12q55 97 82 210.5t27 217.5q0 102 -27 216.5t-82 211.5q-3 6 -3 12q0 8 6 13.5t14 5.5q13 0 23 -13q141 -187 141 -446q0 -260 -141 -446zM632 37v585q0 14 -5 14q-4 0 -8 -6q-44 -54 -54.5 -64t-24.5 -10
q-17 0 -31.5 13t-14.5 32q0 20 18 39q80 84 107 120q20 27 65 27q29 0 48 -19t19 -61v-670q0 -30 -17.5 -47t-41.5 -17t-42 17t-18 47zM302 37v585q0 14 -5 14q-4 0 -8 -6q-40 -49 -53.5 -61.5t-26.5 -12.5q-17 0 -31.5 13t-14.5 32q0 20 18 39q85 90 108 120q20 27 65 27
q28 0 47 -19t19 -61v-670q0 -30 -17.5 -47t-41.5 -17t-41.5 17t-17.5 47zM185 -80q-13 0 -23 14q-141 186 -141 446q0 259 141 446q10 13 23 13q8 0 14 -5.5t6 -13.5q0 -6 -3 -12q-55 -97 -82 -211.5t-27 -216.5q0 -104 27 -217.5t82 -210.5q3 -6 3 -12q0 -8 -6 -14t-14 -6z
" />
    <glyph glyph-name="Japan1.8082" unicode="&#x247f;" 
d="M838 -66q-10 -14 -23 -14q-8 0 -14 6t-6 14q0 6 3 12q55 97 82 210.5t27 217.5q0 102 -27 216.5t-82 211.5q-3 6 -3 12q0 8 6 13.5t14 5.5q13 0 23 -13q141 -187 141 -446q0 -260 -141 -446zM729 -20h-211q-36 0 -53.5 17t-17.5 44q0 37 25 76q14 22 35 58.5t51.5 90
t48.5 85.5q70 122 70 217q0 125 -56 125q-40 0 -58 -31t-27 -101q-2 -15 -14 -23.5t-28 -8.5q-18 0 -30.5 12.5t-12.5 37.5q0 50 16.5 97t59.5 83t104 36q78 0 126.5 -59t48.5 -167q0 -78 -30 -141t-101 -162q-70 -100 -101 -137q-5 -5 -5 -12q0 -10 11 -10q46 1 59 2l91 4
h4q30 0 47 -19t17 -46q0 -28 -18 -48t-51 -20zM270 28v594q0 14 -5 14q-3 0 -7 -6q-35 -49 -49 -61.5t-27 -12.5q-17 0 -30.5 13t-13.5 32t17 39q73 80 102 120q9 12 26.5 20.5t35.5 8.5q60 0 60 -82v-679q0 -26 -16 -41t-39 -15q-22 0 -38 15t-16 41zM185 -80q-13 0 -23 14
q-141 186 -141 446q0 259 141 446q10 13 23 13q8 0 14 -5.5t6 -13.5q0 -6 -3 -12q-55 -97 -82 -211.5t-27 -216.5q0 -104 27 -217.5t82 -210.5q3 -6 3 -12q0 -8 -6 -14t-14 -6z" />
    <glyph glyph-name="Japan1.8083" unicode="&#x2480;" 
d="M838 -66q-10 -14 -23 -14q-8 0 -14 6t-6 14q0 6 3 12q55 97 82 210.5t27 217.5q0 102 -27 216.5t-82 211.5q-3 6 -3 12q0 8 6 13.5t14 5.5q13 0 23 -13q141 -187 141 -446q0 -260 -141 -446zM577 457h31q72 0 72 134q0 48 -19 76.5t-52 28.5q-34 0 -55 -22t-23 -57
q-1 -19 -13 -30t-28 -11q-18 0 -31 13t-13 36q0 67 50 118t120 51q78 0 129.5 -56t51.5 -143q0 -133 -85 -173l-2 -2q0 -2 2 -2q44 -17 71 -67t27 -126q0 -121 -54 -190t-149 -69q-66 0 -119 42.5t-53 106.5q0 23 13.5 34.5t31.5 11.5q33 0 38 -20q8 -35 33 -50.5t55 -15.5
q79 0 79 158q0 63 -18.5 96.5t-48.5 33.5h-4q-11 -1 -37 -1q-23 0 -36.5 14.5t-13.5 33.5t13.5 33t36.5 14zM278 28v594q0 14 -5 14q-3 0 -7 -6q-35 -49 -49 -61.5t-27 -12.5q-17 0 -30.5 13t-13.5 32t17 39q73 80 102 120q9 12 26.5 20.5t35.5 8.5q60 0 60 -82v-679
q0 -26 -16 -41t-39 -15q-22 0 -38 15t-16 41zM185 -80q-13 0 -23 14q-141 186 -141 446q0 259 141 446q10 13 23 13q8 0 14 -5.5t6 -13.5q0 -6 -3 -12q-55 -97 -82 -211.5t-27 -216.5q0 -104 27 -217.5t82 -210.5q3 -6 3 -12q0 -8 -6 -14t-14 -6z" />
    <glyph glyph-name="Japan1.8084" unicode="&#x2481;" 
d="M838 -66q-10 -14 -23 -14q-8 0 -14 6t-6 14q0 6 3 12q55 97 82 210.5t27 217.5q0 102 -27 216.5t-82 211.5q-3 6 -3 12q0 8 6 13.5t14 5.5q13 0 23 -13q141 -187 141 -446q0 -260 -141 -446zM775 101h-24v-68q0 -28 -16.5 -44t-38.5 -16q-23 0 -39.5 16t-16.5 44v68h-157
q-61 0 -61 58q0 31 18 83l182 505q7 18 25 29t40 11q26 0 45 -16.5t19 -48.5v-506h22q29 0 45.5 -17.5t16.5 -40.5t-16 -40t-44 -17zM270 28v594q0 14 -5 14q-3 0 -7 -6q-35 -49 -49 -61.5t-27 -12.5q-17 0 -30.5 13t-13.5 32t17 39q73 80 102 120q9 12 26.5 20.5t35.5 8.5
q60 0 60 -82v-679q0 -26 -16 -41t-39 -15q-22 0 -38 15t-16 41zM185 -80q-13 0 -23 14q-141 186 -141 446q0 259 141 446q10 13 23 13q8 0 14 -5.5t6 -13.5q0 -6 -3 -12q-55 -97 -82 -211.5t-27 -216.5q0 -104 27 -217.5t82 -210.5q3 -6 3 -12q0 -8 -6 -14t-14 -6zM639 214
v103q0 8 13 268v3q0 7 -2 7q-3 0 -6 -9q-11 -33 -30 -95.5t-31 -98.5q-42 -129 -55 -162q-1 -2 -1 -6q0 -10 9 -10h103z" />
    <glyph glyph-name="Japan1.8085" unicode="&#x2482;" 
d="M838 -66q-10 -14 -23 -14q-8 0 -14 6t-6 14q0 6 3 12q55 97 82 210.5t27 217.5q0 102 -27 216.5t-82 211.5q-3 6 -3 12q0 8 6 13.5t14 5.5q13 0 23 -13q141 -187 141 -446q0 -260 -141 -446zM463 385l20 317q3 47 17.5 63t50.5 16h163q33 0 51.5 -19.5t18.5 -46.5
q0 -25 -18 -44t-51 -19h-140q-15 0 -15 -9l-12 -178q27 30 76 30q78 0 128.5 -61.5t50.5 -195.5q0 -131 -59 -201t-146 -70q-73 0 -111.5 43t-38.5 85q0 22 13.5 34.5t30.5 12.5q31 0 37 -26q6 -24 22.5 -38.5t36.5 -14.5q32 0 52.5 30t28 70t7.5 88q0 162 -72 162
q-22 0 -37 -15.5t-30 -50.5q-7 -15 -30 -15q-18 0 -31 12t-13 36v5zM270 28v594q0 14 -5 14q-3 0 -7 -6q-35 -49 -49 -61.5t-27 -12.5q-17 0 -30.5 13t-13.5 32t17 39q73 80 102 120q9 12 26.5 20.5t35.5 8.5q60 0 60 -82v-679q0 -26 -16 -41t-39 -15q-22 0 -38 15t-16 41z
M185 -80q-13 0 -23 14q-141 186 -141 446q0 259 141 446q10 13 23 13q8 0 14 -5.5t6 -13.5q0 -6 -3 -12q-55 -97 -82 -211.5t-27 -216.5q0 -104 27 -217.5t82 -210.5q3 -6 3 -12q0 -8 -6 -14t-14 -6z" />
    <glyph glyph-name="Japan1.8086" unicode="&#x2483;" 
d="M838 -66q-10 -14 -23 -14q-8 0 -14 6t-6 14q0 6 3 12q55 97 82 210.5t27 217.5q0 102 -27 216.5t-82 211.5q-3 6 -3 12q0 8 6 13.5t14 5.5q13 0 23 -13q141 -187 141 -446q0 -260 -141 -446zM555 466q33 44 92 44q55 0 92 -39t52 -95.5t15 -126.5q0 -120 -45 -201
t-131 -81q-54 0 -92 31.5t-57.5 86.5t-28 115.5t-8.5 133.5q0 231 57 345t144 114q37 0 66 -14.5t43 -34.5t21 -36.5t7 -26.5q0 -19 -13 -31t-29 -12q-20 0 -29 17q-14 26 -26.5 37t-34.5 11q-35 0 -63.5 -61.5t-31.5 -175.5zM270 28v594q0 14 -5 14q-3 0 -7 -6
q-35 -49 -49 -61.5t-27 -12.5q-17 0 -30.5 13t-13.5 32t17 39q73 80 102 120q9 12 26.5 20.5t35.5 8.5q60 0 60 -82v-679q0 -26 -16 -41t-39 -15q-22 0 -38 15t-16 41zM185 -80q-13 0 -23 14q-141 186 -141 446q0 259 141 446q10 13 23 13q8 0 14 -5.5t6 -13.5q0 -6 -3 -12
q-55 -97 -82 -211.5t-27 -216.5q0 -104 27 -217.5t82 -210.5q3 -6 3 -12q0 -8 -6 -14t-14 -6zM631 51q14 0 24.5 7.5t16.5 24.5t9.5 32.5t5 43.5t2 45t0.5 49q0 179 -61 179q-36 0 -54 -57t-18 -140q0 -184 75 -184z" />
    <glyph glyph-name="Japan1.8087" unicode="&#x2484;" 
d="M838 -66q-10 -14 -23 -14q-8 0 -14 6t-6 14q0 6 3 12q55 97 82 210.5t27 217.5q0 102 -27 216.5t-82 211.5q-3 6 -3 12q0 8 6 13.5t14 5.5q13 0 23 -13q141 -187 141 -446q0 -260 -141 -446zM680 624h-147q-38 0 -59 20t-21 48t20.5 49t56.5 21h193q92 0 92 -79
q0 -43 -27 -119q-27 -78 -84.5 -269t-100.5 -312q-11 -28 -45 -28q-22 0 -38.5 14t-16.5 38q0 13 6 30q48 125 117 340t69 231t-15 16zM282 11v594q0 14 -5 14q-3 0 -7 -6q-32 -44 -47 -59.5t-28 -15.5q-17 0 -31 13t-14 32q0 21 18 40q69 75 101 120q21 29 63 29
q26 0 43 -19.5t17 -62.5v-679q0 -26 -16.5 -41t-38.5 -15q-23 0 -39 15t-16 41zM185 -80q-13 0 -23 14q-141 186 -141 446q0 259 141 446q10 13 23 13q8 0 14 -5.5t6 -13.5q0 -6 -3 -12q-55 -97 -82 -211.5t-27 -216.5q0 -104 27 -217.5t82 -210.5q3 -6 3 -12q0 -8 -6 -14
t-14 -6z" />
    <glyph glyph-name="Japan1.8088" unicode="&#x2485;" 
d="M838 -66q-10 -14 -23 -14q-8 0 -14 6t-6 14q0 6 3 12q55 97 82 210.5t27 217.5q0 102 -27 216.5t-82 211.5q-3 6 -3 12q0 8 6 13.5t14 5.5q13 0 23 -13q141 -187 141 -446q0 -260 -141 -446zM534 406q-24 19 -50.5 68t-26.5 113q0 104 51.5 155.5t119.5 51.5
q71 0 117.5 -55.5t46.5 -150.5q0 -106 -75 -174q33 -26 65 -81t32 -119q0 -119 -53.5 -183t-135.5 -64q-81 0 -134.5 59.5t-53.5 171.5q0 69 28.5 126.5t68.5 81.5zM270 28v594q0 14 -5 14q-3 0 -7 -6q-35 -49 -49 -61.5t-27 -12.5q-17 0 -30.5 13t-13.5 32t17 39
q73 80 102 120q9 12 26.5 20.5t35.5 8.5q60 0 60 -82v-679q0 -26 -16 -41t-39 -15q-22 0 -38 15t-16 41zM185 -80q-13 0 -23 14q-141 186 -141 446q0 259 141 446q10 13 23 13q8 0 14 -5.5t6 -13.5q0 -6 -3 -12q-55 -97 -82 -211.5t-27 -216.5q0 -104 27 -217.5t82 -210.5
q3 -6 3 -12q0 -8 -6 -14t-14 -6zM647 464q16 15 32 50.5t16 76.5q0 58 -18 91.5t-52 33.5q-31 0 -47.5 -29.5t-16.5 -71.5q0 -95 86 -151zM597 362q-18 -3 -36 -44t-18 -106q0 -74 24 -117.5t57 -43.5q81 0 81 128q0 57 -35 106t-73 77z" />
    <glyph glyph-name="Japan1.8089" unicode="&#x2486;" 
d="M838 -66q-10 -14 -23 -14q-8 0 -14 6t-6 14q0 6 3 12q55 97 82 210.5t27 217.5q0 102 -27 216.5t-82 211.5q-3 6 -3 12q0 8 6 13.5t14 5.5q13 0 23 -13q141 -187 141 -446q0 -260 -141 -446zM705 305q-34 -58 -104 -58q-77 0 -118.5 74.5t-41.5 181.5q0 128 51 210
t139 82q55 0 93.5 -34.5t57.5 -94t27 -121.5t8 -135q0 -214 -54.5 -328.5t-158.5 -114.5q-53 0 -95.5 35.5t-42.5 71.5q0 19 13.5 31t30.5 12t26 -13q27 -38 65 -38q45 0 71.5 55t32.5 184zM270 28v594q0 14 -5 14q-3 0 -7 -6q-35 -49 -49 -61.5t-27 -12.5q-17 0 -30.5 13
t-13.5 32t17 39q73 80 102 120q9 12 26.5 20.5t35.5 8.5q60 0 60 -82v-679q0 -26 -16 -41t-39 -15q-22 0 -38 15t-16 41zM185 -80q-13 0 -23 14q-141 186 -141 446q0 259 141 446q10 13 23 13q8 0 14 -5.5t6 -13.5q0 -6 -3 -12q-55 -97 -82 -211.5t-27 -216.5
q0 -104 27 -217.5t82 -210.5q3 -6 3 -12q0 -8 -6 -14t-14 -6zM619 341q39 0 60 52t21 141q0 75 -16.5 127.5t-53.5 52.5q-72 0 -72 -190q0 -183 61 -183z" />
    <glyph glyph-name="Japan1.8090" unicode="&#x2487;" 
d="M838 -66q-10 -14 -23 -14q-8 0 -14 6t-6 14q0 6 3 12q55 97 82 210.5t27 217.5q0 102 -27 216.5t-82 211.5q-3 6 -3 12q0 8 6 13.5t14 5.5q13 0 23 -13q141 -187 141 -446q0 -260 -141 -446zM665 -35q-31 0 -54.5 9.5t-40 25t-28 44t-18 57.5t-10 75.5t-4.5 88t-1 104.5
q0 104 6 174.5t22 131t48.5 90t81.5 29.5q36 0 62.5 -12t43.5 -40t28 -60.5t16.5 -85.5t7 -103.5t1.5 -125.5q0 -72 -2.5 -123.5t-8.5 -99.5t-17.5 -79t-29.5 -55t-43.5 -34.5t-59.5 -10.5zM413 -20h-175q-51 0 -51 56q0 33 19 77q7 15 26.5 58.5t40 90.5t38.5 89
q35 82 45 137t10 114q0 99 -45 99q-55 0 -59 -142q-1 -16 -13 -26t-28 -10q-17 0 -30 11.5t-13 33.5q0 25 3 51.5t13 59t26 57t45 41.5t67 17q76 0 112 -50t36 -162q0 -74 -20.5 -138.5t-83.5 -179.5q-46 -84 -80 -140q-3 -6 -3 -11q0 -10 8 -10q11 0 41 2l72 3h3
q28 0 44 -19.5t16 -45.5t-16.5 -44.5t-47.5 -18.5zM185 -80q-13 0 -23 14q-141 186 -141 446q0 259 141 446q10 13 23 13q8 0 14 -5.5t6 -13.5q0 -6 -3 -12q-55 -97 -82 -211.5t-27 -216.5q0 -104 27 -217.5t82 -210.5q3 -6 3 -12q0 -8 -6 -14t-14 -6zM666 47q30 0 37 72.5
t7 247.5q0 205 -6.5 277.5t-36.5 72.5t-36.5 -71t-6.5 -278v-118q0 -102 8 -152.5t34 -50.5z" />
    <glyph glyph-name="Japan1.8091" unicode="&#x3251;" 
d="M980 380q0 -130 -64.5 -240.5t-175 -175t-240.5 -64.5t-240.5 64.5t-175 175t-64.5 240.5t64.5 240.5t175 175t240.5 64.5t240.5 -64.5t175 -175t64.5 -240.5zM922 379q0 175 -123.5 298.5t-298.5 123.5t-298.5 -123.5t-123.5 -298.5t123.5 -298t298.5 -123t298.5 123
t123.5 298zM664 133v405q0 13 -5 13q-3 0 -7 -4q-19 -20 -45.5 -38t-37.5 -18q-15 0 -25.5 12.5t-10.5 27.5q0 22 19 34q27 19 109 94q21 19 50 19q24 0 40 -16.5t16 -48.5v-480q0 -25 -15.5 -39.5t-35.5 -14.5q-21 0 -36.5 14.5t-15.5 39.5zM471 85h-208q-21 0 -36 16
t-15 39q0 20 14 40q123 168 149.5 218t26.5 117q0 85 -54 85q-49 0 -73 -96q-6 -25 -35 -25q-15 0 -26 10t-11 27t10 43t28 54.5t51.5 48t73.5 19.5q73 0 112 -42.5t39 -123.5q0 -73 -39 -135t-166 -189v-2q0 -4 5 -4q58 2 64 2h90q21 0 32 -15t11 -36t-11.5 -36t-31.5 -15z
" />
    <glyph glyph-name="Japan1.8092" unicode="&#x2170;" 
d="M500 613q-39 0 -68.5 29t-29.5 70q0 39 29.5 68t68.5 29t68.5 -29t29.5 -68q0 -41 -29.5 -70t-68.5 -29zM419 7v453q0 39 24 61t56 22q33 0 57.5 -22.5t24.5 -60.5v-453q0 -38 -23.5 -59t-56.5 -21t-57.5 21t-24.5 59z" />
    <glyph glyph-name="Japan1.8093" unicode="&#x2171;" 
d="M658 615q-39 0 -68 28.5t-29 68.5q0 39 29 67.5t68 28.5t67.5 -28.5t28.5 -67.5q0 -40 -28.5 -68.5t-67.5 -28.5zM439 712q0 -40 -29 -68.5t-68 -28.5t-67.5 28.5t-28.5 68.5q0 39 28.5 67.5t67.5 28.5t68 -28.5t29 -67.5zM579 7v453q0 39 23 61t55 22t56 -22.5t24 -60.5
v-453q0 -38 -23 -59t-55 -21t-56 21t-24 59zM263 7v453q0 39 23 61t55 22t56 -22.5t24 -60.5v-453q0 -38 -23 -59t-55 -21t-56 21t-24 59z" />
    <glyph glyph-name="Japan1.8094" unicode="&#x2172;" 
d="M752 616q-38 0 -66.5 28t-28.5 68q0 38 28.5 66.5t66.5 28.5t66 -28.5t28 -66.5q0 -40 -28 -68t-66 -28zM498 616q-38 0 -66 28t-28 68q0 38 28 66.5t66 28.5t66.5 -28.5t28.5 -66.5q0 -40 -28.5 -68t-66.5 -28zM676 7v453q0 39 22.5 61t53.5 22t54.5 -22.5t23.5 -60.5
v-453q0 -38 -22.5 -59t-53.5 -21q-32 0 -55 21t-23 59zM248 616q-38 0 -66 28t-28 68q0 38 28 66.5t66 28.5t66.5 -28.5t28.5 -66.5q0 -40 -28.5 -68t-66.5 -28zM421 7v453q0 39 22.5 61t53.5 22t54.5 -22.5t23.5 -60.5v-453q0 -38 -22.5 -59t-53.5 -21q-32 0 -55 21t-23 59
zM169 7v453q0 39 22.5 61t53.5 22t54.5 -22.5t23.5 -60.5v-453q0 -38 -22.5 -59t-53.5 -21q-32 0 -55 21t-23 59z" />
    <glyph glyph-name="Japan1.8095" unicode="&#x2173;" 
d="M373 712q0 -40 -29 -68.5t-68 -28.5t-67.5 28.5t-28.5 68.5q0 39 28.5 67.5t67.5 28.5t68 -28.5t29 -67.5zM571 -11l-174 446q-7 17 -7 33q0 33 24 54t56 21q55 0 73 -54l127 -360q4 -12 12 -12q9 0 14 14l109 379q9 32 48 32q23 0 41 -13.5t18 -36.5q0 -8 -3 -18
l-157 -482q-10 -31 -34.5 -47.5t-54.5 -16.5t-55 16t-37 45zM199 7v453q0 39 22.5 61t53.5 22t54.5 -22.5t23.5 -60.5v-453q0 -38 -22.5 -59t-53.5 -21q-32 0 -55 21t-23 59z" />
    <glyph glyph-name="Japan1.8096" unicode="&#x2174;" 
d="M417 -12l-200 443q-7 14 -7 30q0 33 28.5 57t63.5 24q50 0 71 -49l153 -363q4 -12 14 -12t15 14l126 380q10 31 48 31q24 0 42.5 -13.5t18.5 -35.5q0 -9 -3 -18l-179 -485q-12 -31 -37 -47t-57 -16q-31 0 -57.5 15.5t-39.5 44.5z" />
    <glyph glyph-name="Japan1.8097" unicode="&#x2175;" 
d="M726 615q-39 0 -68 28.5t-29 68.5q0 39 29 67.5t68 28.5t67.5 -28.5t28.5 -67.5q0 -40 -28.5 -68.5t-67.5 -28.5zM649 7v453q0 39 22.5 61t53.5 22t54.5 -22.5t23.5 -60.5v-453q0 -38 -22.5 -59t-53.5 -21q-32 0 -55 21t-23 59zM274 -11l-175 446q-7 17 -7 33
q0 33 24.5 54t56.5 21q55 0 73 -54l127 -360q5 -12 12 -12q9 0 14 14l109 379q9 32 48 32q23 0 41 -13.5t18 -36.5q0 -8 -3 -18l-158 -482q-10 -31 -34.5 -47.5t-54.5 -16.5q-29 0 -54 16t-37 45z" />
    <glyph glyph-name="Japan1.8098" unicode="&#x2176;" 
d="M840 623q-36 0 -62 26t-26 63q0 35 26.5 61.5t61.5 26.5t61.5 -26.5t26.5 -61.5q0 -37 -26 -63t-62 -26zM625 623q-36 0 -62 26t-26 63q0 35 26.5 61.5t61.5 26.5t61.5 -26.5t26.5 -61.5q0 -37 -26 -63t-62 -26zM771 0v466q0 36 20.5 55.5t49.5 19.5t50 -20t21 -55v-466
q0 -34 -21 -53t-49 -19q-29 0 -50 19t-21 53zM556 0v466q0 36 20.5 55.5t49.5 19.5t50 -20t21 -55v-466q0 -34 -21 -53t-49 -19q-29 0 -50 19t-21 53zM218 -10l-166 444q-6 18 -6 32q0 34 25.5 54.5t58.5 20.5q50 0 65 -44l117 -364q5 -13 11 -13q7 0 11 15l97 375
q9 32 46 32q22 0 38.5 -13t16.5 -34q0 -10 -2 -16l-142 -486q-9 -31 -32 -48t-51 -17t-52 16t-35 46z" />
    <glyph glyph-name="Japan1.8099" unicode="&#x2177;" 
d="M880 629q-32 0 -56 24t-24 58q0 32 24 56.5t56 24.5t56.5 -24.5t24.5 -56.5q0 -33 -24.5 -57.5t-56.5 -24.5zM706 629q-32 0 -56 24t-24 58q0 32 24 56.5t56 24.5t56.5 -24.5t24.5 -56.5q0 -33 -24.5 -57.5t-56.5 -24.5zM534 629q-32 0 -56 24t-24 58q0 32 24 56.5
t56 24.5t56.5 -24.5t24.5 -56.5q0 -33 -24.5 -57.5t-56.5 -24.5zM821 -2v479q0 30 18 47t43 17t43.5 -17t18.5 -47v-479q0 -33 -18 -52t-43 -19t-43.5 19t-18.5 52zM647 -2v479q0 30 18 47t43 17t43.5 -17t18.5 -47v-479q0 -33 -18 -52t-43 -19t-43.5 19t-18.5 52zM475 -1
v478q0 30 18 47t43 17t43.5 -17t18.5 -47v-478q0 -34 -18 -53t-43 -19t-43.5 19t-18.5 53zM183 -10l-147 447q-6 21 -6 37q0 32 20 49.5t48 17.5q50 0 62 -41l104 -367q3 -13 9 -13t9 15l86 375q8 31 42 31q18 0 31.5 -11.5t13.5 -32.5q0 -9 -3 -19l-123 -485
q-8 -31 -28 -48t-44 -17t-44.5 16t-29.5 46z" />
    <glyph glyph-name="Japan1.8100" unicode="&#x2178;" 
d="M355 712q0 -40 -29 -68.5t-68 -28.5t-67.5 28.5t-28.5 68.5q0 39 28.5 67.5t67.5 28.5t68 -28.5t29 -67.5zM752 -49l-143 204l-147 -206q-14 -21 -39 -21q-20 0 -36 14.5t-16 35.5t15 40l160 213l-140 192q-16 22 -16 45q0 30 23 53t52 23q34 0 57 -33l118 -165l120 173
q15 23 42 23q21 0 37.5 -15t16.5 -36q0 -17 -12 -33l-140 -189l150 -193q27 -34 27 -69q0 -34 -25.5 -56.5t-56.5 -22.5t-47 23zM181 7v453q0 39 22.5 61t53.5 22t54.5 -22.5t23.5 -60.5v-453q0 -38 -22.5 -59t-53.5 -21q-32 0 -55 21t-23 59z" />
    <glyph glyph-name="Japan1.8101" unicode="&#x2179;" 
d="M656 -46l-171 202l-177 -206q-19 -22 -45 -22q-22 0 -39 15.5t-17 37.5q0 23 19 43l185 205l-166 192q-19 22 -19 48q0 30 24 52t56 22q38 0 68 -34l139 -164l148 174q19 23 46 23q23 0 39.5 -15.5t16.5 -37.5t-15 -38l-159 -182l179 -190q26 -27 26 -60q0 -35 -27 -62.5
t-60 -27.5q-29 0 -51 25z" />
    <glyph glyph-name="Japan1.8102" unicode="&#x3252;" 
d="M980 380q0 -130 -64.5 -240.5t-175 -175t-240.5 -64.5t-240.5 64.5t-175 175t-64.5 240.5t64.5 240.5t175 175t240.5 64.5t240.5 -64.5t175 -175t64.5 -240.5zM922 379q0 175 -123.5 298.5t-298.5 123.5t-298.5 -123.5t-123.5 -298.5t123.5 -298t298.5 -123t298.5 123
t123.5 298zM769 85h-207q-21 0 -36.5 16t-15.5 39q0 20 14 40q123 168 149.5 218t26.5 117q0 85 -54 85q-48 0 -72 -96q-6 -25 -35 -25q-15 0 -26 10t-11 27q0 19 10 45t28.5 54t51 47t72.5 19q73 0 112.5 -42.5t39.5 -123.5q0 -75 -39.5 -136t-166.5 -188v-2q0 -4 5 -4
q58 2 64 2h90q21 0 32 -15t11 -36t-11.5 -36t-31.5 -15zM436 85h-208q-21 0 -36 16t-15 39q0 20 14 40q123 168 149.5 218t26.5 117q0 85 -54 85q-49 0 -73 -96q-6 -25 -35 -25q-15 0 -26 10t-11 27t10 43t28 54.5t51.5 48t73.5 19.5q73 0 112 -42.5t39 -123.5
q0 -73 -39 -135t-166 -189v-2q0 -4 5 -4q58 2 64 2h90q21 0 32 -15t11 -36t-11.5 -36t-31.5 -15z" />
    <glyph glyph-name="Japan1.8103" unicode="&#x3253;" 
d="M980 380q0 -130 -64.5 -240.5t-175 -175t-240.5 -64.5t-240.5 64.5t-175 175t-64.5 240.5t64.5 240.5t175 175t240.5 64.5t240.5 -64.5t175 -175t64.5 -240.5zM922 379q0 175 -123.5 298.5t-298.5 123.5t-298.5 -123.5t-123.5 -298.5t123.5 -298t298.5 -123t298.5 123
t123.5 298zM613 437h23q72 0 72 98q0 35 -15 55t-40 20q-49 0 -74 -62q-10 -25 -31 -25q-14 0 -25 11t-11 26q0 5 3.5 17t14.5 30.5t28 34.5t47.5 27.5t69.5 11.5q61 0 101.5 -42t40.5 -103q0 -39 -20.5 -74.5t-62.5 -51.5q48 -9 78 -49.5t30 -94.5q0 -91 -53 -141.5
t-138 -50.5q-64 0 -111 39t-47 72q0 17 13.5 27t29.5 10q18 0 23 -11q32 -58 92 -58q38 0 58.5 30t20.5 81q0 43 -26.5 71t-60.5 28q-5 0 -15 -0.5t-16 -0.5q-16 0 -24 10.5t-8 25.5q0 16 8.5 27.5t24.5 11.5zM436 85h-208q-21 0 -36 16t-15 39q0 20 14 40
q123 168 149.5 218t26.5 117q0 85 -54 85q-49 0 -73 -96q-6 -25 -35 -25q-15 0 -26 10t-11 27t10 43t28 54.5t51.5 48t73.5 19.5q73 0 112 -42.5t39 -123.5q0 -73 -39 -135t-166 -189v-2q0 -4 5 -4q58 2 64 2h90q21 0 32 -15t11 -36t-11.5 -36t-31.5 -15z" />
    <glyph glyph-name="Japan1.8104" unicode="&#x3254;" 
d="M980 380q0 -130 -64.5 -240.5t-175 -175t-240.5 -64.5t-240.5 64.5t-175 175t-64.5 240.5t64.5 240.5t175 175t240.5 64.5t240.5 -64.5t175 -175t64.5 -240.5zM922 379q0 175 -123.5 298.5t-298.5 123.5t-298.5 -123.5t-123.5 -298.5t123.5 -298t298.5 -123t298.5 123
t123.5 298zM818 182h-27v-47q0 -26 -14.5 -40.5t-34.5 -14.5t-35 14.5t-15 40.5v47h-157q-19 0 -33 15t-14 39q0 23 13 50l170 359q17 36 64 36q24 0 40 -14t16 -41v-357h25q18 0 28 -13t10 -31q0 -17 -9.5 -30t-26.5 -13zM436 85h-208q-21 0 -36 16t-15 39q0 20 14 40
q123 168 149.5 218t26.5 117q0 85 -54 85q-49 0 -73 -96q-6 -25 -35 -25q-15 0 -26 10t-11 27t10 43t28 54.5t51.5 48t73.5 19.5q73 0 112 -42.5t39 -123.5q0 -73 -39 -135t-166 -189v-2q0 -4 5 -4q58 2 64 2h90q21 0 32 -15t11 -36t-11.5 -36t-31.5 -15zM691 266v76
q0 56 8 163v5q0 13 -3 13q-2 0 -7 -12q-21 -64 -39 -101q-49 -103 -55 -117q-5 -10 -5 -16q0 -11 17 -11h84z" />
    <glyph glyph-name="Japan1.8105" unicode="&#x3255;" 
d="M980 380q0 -130 -64.5 -240.5t-175 -175t-240.5 -64.5t-240.5 64.5t-175 175t-64.5 240.5t64.5 240.5t175 175t240.5 64.5t240.5 -64.5t175 -175t64.5 -240.5zM922 379q0 175 -123.5 298.5t-298.5 123.5t-298.5 -123.5t-123.5 -298.5t123.5 -298t298.5 -123t298.5 123
t123.5 298zM757 571h-137q-8 0 -10 -12l-12 -111q33 20 77 20q68 0 114.5 -50t46.5 -145q0 -85 -50.5 -141.5t-128.5 -56.5q-61 0 -105.5 35t-44.5 63q0 16 11.5 27t26.5 11q19 0 29 -16q27 -39 73 -39q34 0 55.5 35t21.5 93q0 50 -20 82.5t-50 32.5q-46 0 -74 -41
q-8 -11 -26 -11q-14 0 -24.5 8t-10.5 23v4l22 229q3 31 13.5 44.5t43.5 13.5h159q21 0 33 -15t12 -35q0 -19 -12 -33.5t-33 -14.5zM436 85h-208q-21 0 -36 16t-15 39q0 20 14 40q123 168 149.5 218t26.5 117q0 85 -54 85q-49 0 -73 -96q-6 -25 -35 -25q-15 0 -26 10t-11 27
t10 43t28 54.5t51.5 48t73.5 19.5q73 0 112 -42.5t39 -123.5q0 -73 -39 -135t-166 -189v-2q0 -4 5 -4q58 2 64 2h90q21 0 32 -15t11 -36t-11.5 -36t-31.5 -15z" />
    <glyph glyph-name="Japan1.8106" unicode="&#x3256;" 
d="M980 380q0 -130 -64.5 -240.5t-175 -175t-240.5 -64.5t-240.5 64.5t-175 175t-64.5 240.5t64.5 240.5t175 175t240.5 64.5t240.5 -64.5t175 -175t64.5 -240.5zM922 379q0 175 -123.5 298.5t-298.5 123.5t-298.5 -123.5t-123.5 -298.5t123.5 -298t298.5 -123t298.5 123
t123.5 298zM610 419q8 29 34 44t56 15q61 0 95.5 -55t34.5 -131q0 -99 -41.5 -159t-118.5 -60q-38 0 -67 16t-47 42.5t-29.5 64.5t-16 77t-4.5 85q0 146 44.5 233.5t139.5 87.5q57 0 86.5 -20.5t29.5 -43.5q0 -14 -9.5 -24t-22.5 -10q-9 0 -18 6q-29 20 -53 20
q-46 0 -66.5 -44t-26.5 -144zM436 85h-208q-21 0 -36 16t-15 39q0 20 14 40q123 168 149.5 218t26.5 117q0 85 -54 85q-49 0 -73 -96q-6 -25 -35 -25q-15 0 -26 10t-11 27t10 43t28 54.5t51.5 48t73.5 19.5q73 0 112 -42.5t39 -123.5q0 -73 -39 -135t-166 -189v-2q0 -4 5 -4
q58 2 64 2h89q21 0 32 -15.5t11 -36.5q0 -20 -11 -35t-31 -15zM671 139q24 0 38.5 38t14.5 95q0 56 -12 94t-37 38q-29 0 -41 -36t-12 -108q0 -121 49 -121z" />
    <glyph glyph-name="Japan1.8107" unicode="&#x3257;" 
d="M980 380q0 -130 -64.5 -240.5t-175 -175t-240.5 -64.5t-240.5 64.5t-175 175t-64.5 240.5t64.5 240.5t175 175t240.5 64.5t240.5 -64.5t175 -175t64.5 -240.5zM922 379q0 175 -123.5 298.5t-298.5 123.5t-298.5 -123.5t-123.5 -298.5t123.5 -298t298.5 -123t298.5 123
t123.5 298zM718 553h-153q-24 0 -38 16.5t-14 38.5t13.5 38t38.5 16h208q27 0 45 -16.5t18 -47.5q0 -25 -12 -52q-2 -4 -178 -454q-9 -24 -39 -24q-18 0 -31 11t-13 30q0 11 4 22l160 404q2 6 2 8q0 10 -11 10zM451 80h-208q-21 0 -36 16t-15 39q0 20 14 40
q123 168 149.5 218t26.5 117q0 85 -54 85q-49 0 -73 -96q-6 -25 -35 -25q-15 0 -26 10t-11 27t10 43t28 54.5t51.5 48t73.5 19.5q73 0 112 -42.5t39 -123.5q0 -73 -39 -135t-166 -189v-2q0 -4 5 -4q58 2 64 2h90q21 0 32 -15t11 -36t-11.5 -36t-31.5 -15z" />
    <glyph glyph-name="Japan1.8108" unicode="&#x3258;" 
d="M980 380q0 -130 -64.5 -240.5t-175 -175t-240.5 -64.5t-240.5 64.5t-175 175t-64.5 240.5t64.5 240.5t175 175t240.5 64.5t240.5 -64.5t175 -175t64.5 -240.5zM922 379q0 175 -123.5 298.5t-298.5 123.5t-298.5 -123.5t-123.5 -298.5t123.5 -298t298.5 -123t298.5 123
t123.5 298zM751 399q34 -19 59.5 -56t25.5 -89q0 -86 -47.5 -133.5t-117.5 -47.5q-69 0 -119.5 44t-50.5 125q0 50 23 92.5t63 62.5q-73 46 -73 131q0 70 44.5 111t109.5 41q66 0 110 -39.5t44 -110.5q0 -90 -71 -131zM436 85h-208q-21 0 -36 16t-15 39q0 20 14 40
q123 168 149.5 218t26.5 117q0 85 -54 85q-49 0 -73 -96q-6 -25 -35 -25q-15 0 -26 10t-11 27t10 43t28 54.5t51.5 48t73.5 19.5q73 0 112 -42.5t39 -123.5q0 -73 -39 -135t-166 -189v-2q0 -4 5 -4q58 2 64 2h89q21 0 32 -15.5t11 -36.5q0 -20 -11 -35t-31 -15zM688 443
q37 30 37 84q0 42 -15.5 69.5t-46.5 27.5q-23 0 -38.5 -22t-15.5 -53q0 -67 79 -106zM648 360q-16 -1 -33.5 -29t-17.5 -78q0 -54 20.5 -85t50.5 -31q28 0 48.5 21t20.5 71q0 82 -89 131z" />
    <glyph glyph-name="Japan1.8109" unicode="&#x3259;" 
d="M980 380q0 -130 -64.5 -240.5t-175 -175t-240.5 -64.5t-240.5 64.5t-175 175t-64.5 240.5t64.5 240.5t175 175t240.5 64.5t240.5 -64.5t175 -175t64.5 -240.5zM922 379q0 175 -123.5 298.5t-298.5 123.5t-298.5 -123.5t-123.5 -298.5t123.5 -298t298.5 -123t298.5 123
t123.5 298zM727 332q-9 -24 -36 -39.5t-54 -15.5q-63 0 -95 53t-32 134q0 100 41 158t116 58q47 0 80.5 -24t50.5 -66.5t24.5 -88.5t7.5 -102q0 -326 -180 -326q-47 0 -83 22t-36 45q0 15 10.5 26t23.5 11q9 0 14 -5q31 -25 61 -25q47 0 65 44.5t22 140.5zM436 85h-208
q-21 0 -36 16t-15 39q0 20 14 40q123 168 149.5 218t26.5 117q0 85 -54 85q-49 0 -73 -96q-6 -25 -35 -25q-15 0 -26 10t-11 27t10 43t28 54.5t51.5 48t73.5 19.5q73 0 112 -42.5t39 -123.5q0 -73 -39 -135t-166 -189v-2q0 -4 5 -4q58 2 64 2h90q21 0 32 -15t11 -36
t-11.5 -36t-31.5 -15zM662 355q56 0 56 136q0 52 -13 90.5t-39 38.5q-52 0 -52 -140q0 -125 48 -125z" />
    <glyph glyph-name="Japan1.8110" unicode="&#x325a;" 
d="M980 380q0 -130 -64.5 -240.5t-175 -175t-240.5 -64.5t-240.5 64.5t-175 175t-64.5 240.5t64.5 240.5t175 175t240.5 64.5t240.5 -64.5t175 -175t64.5 -240.5zM922 379q0 175 -123.5 298.5t-298.5 123.5t-298.5 -123.5t-123.5 -298.5t123.5 -298t298.5 -123t298.5 123
t123.5 298zM680 73q-83 0 -116.5 73t-33.5 222q0 311 153 311q82 0 116.5 -81t34.5 -231q0 -148 -34.5 -221t-119.5 -73zM276 437h23q73 0 73 98q0 76 -58 76q-21 0 -41 -15.5t-31 -46.5q-10 -25 -33 -25q-13 0 -23 9.5t-10 23.5q0 33 41 78.5t118 45.5q62 0 103.5 -42.5
t41.5 -102.5q0 -41 -20 -78t-63 -50q51 -13 79.5 -52t28.5 -93q0 -91 -52.5 -140t-138.5 -49q-53 0 -105 37.5t-52 74.5q0 16 12 26.5t27 10.5q16 0 23 -12q31 -58 95 -58q36 0 57 31t21 80q0 43 -26 71t-60 28q-6 0 -16 -0.5t-15 -0.5q-16 0 -25 11t-9 27q0 15 9 26t26 11z
M682 138q11 0 19 8t12.5 26.5t7.5 35t4.5 48.5t1.5 52v59v55.5t-1.5 53.5t-4 53.5t-7.5 41t-12.5 31.5t-18.5 10q-15 0 -25 -18.5t-14 -55t-5 -67t-1 -78.5q0 -148 7.5 -201.5t36.5 -53.5z" />
    <glyph glyph-name="Japan1.8111" unicode="&#x325b;" 
d="M980 380q0 -130 -64.5 -240.5t-175 -175t-240.5 -64.5t-240.5 64.5t-175 175t-64.5 240.5t64.5 240.5t175 175t240.5 64.5t240.5 -64.5t175 -175t64.5 -240.5zM922 379q0 175 -123.5 298.5t-298.5 123.5t-298.5 -123.5t-123.5 -298.5t123.5 -298t298.5 -123t298.5 123
t123.5 298zM664 133v405q0 13 -5 13q-3 0 -7 -4q-19 -20 -45.5 -38t-37.5 -18q-15 0 -25.5 12.5t-10.5 27.5q0 22 19 34q27 19 109 94q21 19 50 19q24 0 40 -16.5t16 -48.5v-480q0 -25 -15.5 -39.5t-35.5 -14.5q-21 0 -36.5 14.5t-15.5 39.5zM302 437h22q35 0 54.5 25
t19.5 73q0 76 -58 76q-21 0 -41.5 -16t-31.5 -46q-10 -25 -33 -25q-13 0 -23 9.5t-10 23.5q0 8 7.5 25.5t23.5 41t50 40.5t79 17q62 0 103 -42.5t41 -102.5q0 -41 -19.5 -78t-62.5 -50q51 -13 79 -52t28 -93q0 -91 -52.5 -140t-137.5 -49q-53 0 -105 37.5t-52 74.5
q0 16 12 26.5t27 10.5q16 0 23 -12q31 -58 94 -58q37 0 58 31t21 80q0 43 -26 71t-60 28q-5 0 -15.5 -0.5t-15.5 -0.5q-16 0 -25 11t-9 27q0 15 9 26t26 11z" />
    <glyph glyph-name="Japan1.8112" unicode="&#x249c;" 
d="M838 -66q-10 -14 -23 -14q-8 0 -14 6t-6 14q0 6 3 12q55 97 82 210.5t27 217.5q0 102 -27 216.5t-82 211.5q-3 6 -3 12q0 8 6 13.5t14 5.5q13 0 23 -13q141 -187 141 -446q0 -260 -141 -446zM695 463v-230q0 -48 28 -48q6 0 8 1q6 2 10 2q15 0 25.5 -12t10.5 -27
q0 -31 -40 -47t-74 -16q-71 0 -88 59q-60 -60 -161 -60q-75 0 -117 41t-42 112q0 66 34 112.5t90 67.5q35 13 100.5 24.5t84.5 16.5q0 61 -22.5 87t-71.5 26q-63 0 -112 -53q-16 -17 -36 -17q-18 0 -30.5 12.5t-12.5 30.5q0 45 68.5 83t146.5 38q95 0 148 -52t53 -151z
M185 -80q-13 0 -23 14q-141 186 -141 446q0 259 141 446q10 13 23 13q8 0 14 -5.5t6 -13.5q0 -6 -3 -12q-55 -97 -82 -211.5t-27 -216.5q0 -104 27 -217.5t82 -210.5q3 -6 3 -12q0 -8 -6 -14t-14 -6zM561 242v131q-96 -12 -132.5 -38t-36.5 -71q0 -46 18.5 -65.5t56.5 -19.5
q32 0 63 22t31 41z" />
    <glyph glyph-name="Japan1.8113" unicode="&#x249d;" 
d="M838 -66q-10 -14 -23 -14q-8 0 -14 6t-6 14q0 6 3 12q55 97 82 210.5t27 217.5q0 102 -27 216.5t-82 211.5q-3 6 -3 12q0 8 6 13.5t14 5.5q13 0 23 -13q141 -187 141 -446q0 -260 -141 -446zM407 7v-1q0 -26 -19.5 -42t-45.5 -16q-28 0 -48 19.5t-20 56.5v725
q0 30 19.5 46.5t46.5 16.5t47 -16.5t20 -46.5v-292q19 28 62.5 50.5t79.5 22.5q240 0 240 -286q0 -125 -64 -210t-184 -85q-47 0 -84 17.5t-50 40.5zM185 -80q-13 0 -23 14q-141 186 -141 446q0 259 141 446q10 13 23 13q8 0 14 -5.5t6 -13.5q0 -6 -3 -12
q-55 -97 -82 -211.5t-27 -216.5q0 -104 27 -217.5t82 -210.5q3 -6 3 -12q0 -8 -6 -14t-14 -6zM529 36q40 0 67.5 33t38.5 78t11 97q0 50 -9.5 91t-37.5 72.5t-71 31.5q-51 0 -86 -52t-35 -150q0 -36 5 -68t17.5 -63.5t38 -50.5t61.5 -19z" />
    <glyph glyph-name="Japan1.8114" unicode="&#x249e;" 
d="M838 -66q-10 -14 -23 -14q-8 0 -14 6t-6 14q0 6 3 12q55 97 82 210.5t27 217.5q0 102 -27 216.5t-82 211.5q-3 6 -3 12q0 8 6 13.5t14 5.5q13 0 23 -13q141 -187 141 -446q0 -260 -141 -446zM741 201q0 -40 -63.5 -78t-134.5 -38q-136 0 -216 79t-80 205q0 136 83.5 217
t215.5 81q75 0 131 -38.5t56 -74.5q0 -20 -15.5 -33t-34.5 -13q-20 0 -30 14q-38 49 -103 49q-70 0 -112 -55.5t-42 -137.5q0 -99 44 -148.5t112 -49.5q66 0 116 56q10 12 26 12q18 0 32.5 -13.5t14.5 -33.5zM185 -80q-13 0 -23 14q-141 186 -141 446q0 259 141 446
q10 13 23 13q8 0 14 -5.5t6 -13.5q0 -6 -3 -12q-55 -97 -82 -211.5t-27 -216.5q0 -104 27 -217.5t82 -210.5q3 -6 3 -12q0 -8 -6 -14t-14 -6z" />
    <glyph glyph-name="Japan1.8115" unicode="&#x249f;" 
d="M838 -66q-10 -14 -23 -14q-8 0 -14 6t-6 14q0 6 3 12q55 97 82 210.5t27 217.5q0 102 -27 216.5t-82 211.5q-3 6 -3 12q0 8 6 13.5t14 5.5q13 0 23 -13q141 -187 141 -446q0 -260 -141 -446zM597 462v280q0 32 19.5 49.5t47.5 17.5q27 0 47 -17.5t20 -49.5v-727
q0 -35 -21.5 -54.5t-49.5 -19.5q-26 0 -44.5 16.5t-18.5 45.5q-21 -21 -61.5 -39.5t-81.5 -18.5q-71 0 -122 24t-78.5 67.5t-40 94.5t-12.5 113q0 113 64.5 197.5t179.5 84.5q53 0 93 -18t59 -46zM185 -80q-13 0 -23 14q-141 186 -141 446q0 259 141 446q10 13 23 13
q8 0 14 -5.5t6 -13.5q0 -6 -3 -12q-55 -97 -82 -211.5t-27 -216.5q0 -104 27 -217.5t82 -210.5q3 -6 3 -12q0 -8 -6 -14t-14 -6zM470 31q10 0 21 2t31 14t34.5 33t26 64t11.5 102q0 64 -10 97q-12 40 -41 66t-72 26q-61 0 -94 -58.5t-33 -136.5q0 -46 5 -80.5t18 -65t39 -47
t64 -16.5z" />
    <glyph glyph-name="Japan1.8116" unicode="&#x24a0;" 
d="M838 -66q-10 -14 -23 -14q-8 0 -14 6t-6 14q0 6 3 12q55 97 82 210.5t27 217.5q0 102 -27 216.5t-82 211.5q-3 6 -3 12q0 8 6 13.5t14 5.5q13 0 23 -13q141 -187 141 -446q0 -260 -141 -446zM690 344h-302q7 -164 135 -164q83 0 133 62q13 16 34 16q17 0 30.5 -12
t13.5 -31q0 -37 -60.5 -83.5t-155.5 -46.5q-128 0 -198 76.5t-70 214.5q0 129 70 209.5t185 80.5q98 0 165 -68t67 -193q0 -19 -6 -32t-15 -19t-15 -8t-11 -2zM185 -80q-13 0 -23 14q-141 186 -141 446q0 259 141 446q10 13 23 13q8 0 14 -5.5t6 -13.5q0 -6 -3 -12
q-55 -97 -82 -211.5t-27 -216.5q0 -104 27 -217.5t82 -210.5q3 -6 3 -12q0 -8 -6 -14t-14 -6zM387 424h194q18 0 18 15v4q0 64 -26 101t-70 37q-55 0 -85.5 -42.5t-30.5 -111.5v-3z" />
    <glyph glyph-name="Japan1.8117" unicode="&#x24a1;" 
d="M838 -66q-10 -14 -23 -14q-8 0 -14 6t-6 14q0 6 3 12q55 97 82 210.5t27 217.5q0 102 -27 216.5t-82 211.5q-3 6 -3 12q0 8 6 13.5t14 5.5q13 0 23 -13q141 -187 141 -446q0 -260 -141 -446zM413 -2v418h-55q-23 0 -35 13.5t-12 32.5t12.5 34t33.5 15h56v28q0 36 2.5 65
t12.5 64t26.5 59t47 43t72.5 24q6 1 19 1q50 0 69 -15.5t19 -35.5q0 -19 -12 -32.5t-31 -13.5q-9 0 -14 2t-15 2q-34 0 -49 -35t-15 -121v-35h79q21 0 33 -13.5t12 -32.5t-12.5 -34t-33.5 -15h-78v-418q0 -28 -19.5 -44t-46.5 -16t-46.5 16t-19.5 44zM185 -80q-13 0 -23 14
q-141 186 -141 446q0 259 141 446q10 13 23 13q8 0 14 -5.5t6 -13.5q0 -6 -3 -12q-55 -97 -82 -211.5t-27 -216.5q0 -104 27 -217.5t82 -210.5q3 -6 3 -12q0 -8 -6 -14t-14 -6z" />
    <glyph glyph-name="Japan1.8118" unicode="&#x24a2;" 
d="M838 -66q-10 -14 -23 -14q-8 0 -14 6t-6 14q0 6 3 12q55 97 82 210.5t27 217.5q0 102 -27 216.5t-82 211.5q-3 6 -3 12q0 8 6 13.5t14 5.5q13 0 23 -13q141 -187 141 -446q0 -260 -141 -446zM425 375q-25 -15 -25 -34q0 -21 56 -24q8 -1 12 -1q160 -9 220 -49t60 -128
q0 -89 -74 -139.5t-191 -50.5q-106 0 -172.5 42t-66.5 111q0 39 21.5 71.5t48.5 46.5q-38 28 -38 78q0 25 20 54t41 44q-81 52 -81 171q0 87 66.5 141t156.5 54q62 0 108 -22q52 62 105 62q33 0 51.5 -20.5t18.5 -47.5q0 -69 -62 -69q-13 0 -35 24q-5 6 -18 6h-3
q47 -61 47 -134q0 -95 -65 -142.5t-164 -48.5q-14 0 -37 5zM185 -80q-13 0 -23 14q-141 186 -141 446q0 259 141 446q10 13 23 13q8 0 14 -5.5t6 -13.5q0 -6 -3 -12q-55 -97 -82 -211.5t-27 -216.5q0 -104 27 -217.5t82 -210.5q3 -6 3 -12q0 -8 -6 -14t-14 -6zM472 446
q43 0 66.5 32.5t23.5 84.5q0 124 -84 124q-41 0 -67 -32t-26 -91q0 -53 22.5 -85.5t64.5 -32.5zM404 203q-28 -11 -45.5 -38t-17.5 -55q0 -38 37 -58t90 -20q59 0 99.5 18t40.5 56q0 35 -14 54t-59 31t-131 12z" />
    <glyph glyph-name="Japan1.8119" unicode="&#x24a3;" 
d="M838 -66q-10 -14 -23 -14q-8 0 -14 6t-6 14q0 6 3 12q55 97 82 210.5t27 217.5q0 102 -27 216.5t-82 211.5q-3 6 -3 12q0 8 6 13.5t14 5.5q13 0 23 -13q141 -187 141 -446q0 -260 -141 -446zM611 25v262q0 83 -17.5 118t-69.5 35q-38 0 -74.5 -34.5t-36.5 -92.5v-287
q0 -32 -20 -50t-48 -18t-48 18t-20 50v716q0 33 20 52t48 19t48 -19t20 -52v-263q24 24 63 39t78 15q97 0 146 -59t49 -157v-292q0 -33 -21 -51t-49 -18t-48 18t-20 51zM185 -80q-13 0 -23 14q-141 186 -141 446q0 259 141 446q10 13 23 13q8 0 14 -5.5t6 -13.5q0 -6 -3 -12
q-55 -97 -82 -211.5t-27 -216.5q0 -104 27 -217.5t82 -210.5q3 -6 3 -12q0 -8 -6 -14t-14 -6z" />
    <glyph glyph-name="Japan1.8120" unicode="&#x24a4;" 
d="M838 -66q-10 -14 -23 -14q-8 0 -14 6t-6 14q0 6 3 12q55 97 82 210.5t27 217.5q0 102 -27 216.5t-82 211.5q-3 6 -3 12q0 8 6 13.5t14 5.5q13 0 23 -13q141 -187 141 -446q0 -260 -141 -446zM591 696q0 -37 -26.5 -63.5t-64.5 -26.5t-64.5 26.5t-26.5 63.5
q0 38 26.5 64.5t64.5 26.5t64.5 -26.5t26.5 -64.5zM425 34v432q0 35 22 54.5t52 19.5q31 0 53.5 -19.5t22.5 -54.5v-432q0 -35 -22 -54.5t-52 -19.5q-31 0 -53.5 19.5t-22.5 54.5zM185 -80q-13 0 -23 14q-141 186 -141 446q0 259 141 446q10 13 23 13q8 0 14 -5.5t6 -13.5
q0 -6 -3 -12q-55 -97 -82 -211.5t-27 -216.5q0 -104 27 -217.5t82 -210.5q3 -6 3 -12q0 -8 -6 -14t-14 -6z" />
    <glyph glyph-name="Japan1.8121" unicode="&#x24a5;" 
d="M838 -66q-10 -14 -23 -14q-8 0 -14 6t-6 14q0 6 3 12q55 97 82 210.5t27 217.5q0 102 -27 216.5t-82 211.5q-3 6 -3 12q0 8 6 13.5t14 5.5q13 0 23 -13q141 -187 141 -446q0 -260 -141 -446zM610 748q0 -38 -27 -64.5t-64 -26.5t-64 26.5t-27 64.5q0 37 26.5 63.5
t64.5 26.5t64.5 -26.5t26.5 -63.5zM446 205v341q0 33 21.5 51t50.5 18q30 0 52 -18t22 -51v-352q0 -63 -20 -113.5t-48 -79t-62 -47.5t-58 -25.5t-39 -6.5q-25 0 -39.5 15.5t-14.5 36.5q0 39 39 50q96 25 96 181zM185 -80q-13 0 -23 14q-141 186 -141 446q0 259 141 446
q10 13 23 13q8 0 14 -5.5t6 -13.5q0 -6 -3 -12q-55 -97 -82 -211.5t-27 -216.5q0 -104 27 -217.5t82 -210.5q3 -6 3 -12q0 -8 -6 -14t-14 -6z" />
    <glyph glyph-name="Japan1.8122" unicode="&#x24a6;" 
d="M838 -66q-10 -14 -23 -14q-8 0 -14 6t-6 14q0 6 3 12q55 97 82 210.5t27 217.5q0 102 -27 216.5t-82 211.5q-3 6 -3 12q0 8 6 13.5t14 5.5q13 0 23 -13q141 -187 141 -446q0 -260 -141 -446zM624 -3l-160 234l-25 -24v-177q0 -32 -20 -50t-48 -18q-27 0 -46.5 18
t-19.5 50v723q0 33 19.5 51t47.5 18q27 0 47 -18t20 -51v-434q34 29 85.5 78.5t86.5 84.5l35 36q20 19 43 19q20 0 34.5 -13.5t14.5 -32.5q0 -25 -27 -51l-143 -130l167 -210q25 -31 25 -63t-22.5 -53.5t-52.5 -21.5q-37 0 -61 35zM185 -80q-13 0 -23 14q-141 186 -141 446
q0 259 141 446q10 13 23 13q8 0 14 -5.5t6 -13.5q0 -6 -3 -12q-55 -97 -82 -211.5t-27 -216.5q0 -104 27 -217.5t82 -210.5q3 -6 3 -12q0 -8 -6 -14t-14 -6z" />
    <glyph glyph-name="Japan1.8123" unicode="&#x24a7;" 
d="M838 -66q-10 -14 -23 -14q-8 0 -14 6t-6 14q0 6 3 12q55 97 82 210.5t27 217.5q0 102 -27 216.5t-82 211.5q-3 6 -3 12q0 8 6 13.5t14 5.5q13 0 23 -13q141 -187 141 -446q0 -260 -141 -446zM427 23v709q0 36 21.5 56.5t50.5 20.5q30 0 52 -20.5t22 -56.5v-709
q0 -34 -21.5 -53t-51.5 -19q-29 0 -51 19t-22 53zM185 -80q-13 0 -23 14q-141 186 -141 446q0 259 141 446q10 13 23 13q8 0 14 -5.5t6 -13.5q0 -6 -3 -12q-55 -97 -82 -211.5t-27 -216.5q0 -104 27 -217.5t82 -210.5q3 -6 3 -12q0 -8 -6 -14t-14 -6z" />
    <glyph glyph-name="Japan1.8124" unicode="&#x24a8;" 
d="M838 -66q-10 -14 -23 -14q-8 0 -14 6t-6 14q0 6 3 12q55 97 82 210.5t27 217.5q0 102 -27 216.5t-82 211.5q-3 6 -3 12q0 8 6 13.5t14 5.5q13 0 23 -13q141 -187 141 -446q0 -260 -141 -446zM697 158v262q0 89 -12.5 119.5t-46.5 30.5q-28 0 -52 -35t-24 -92v-285
q0 -33 -18 -52t-42 -19q-25 0 -43 19t-18 52v262q0 87 -15.5 118.5t-47.5 31.5q-31 0 -52.5 -41t-21.5 -91v-279q0 -34 -18.5 -53t-44.5 -19q-25 0 -44 19t-19 53v442q0 32 19.5 49.5t46.5 17.5q24 0 42 -15t18 -41q33 51 107 51q35 0 69.5 -21t49.5 -55q51 76 142 76
q151 0 151 -224v-281q0 -33 -19 -52t-44 -19q-26 0 -44.5 19t-18.5 52zM185 -80q-13 0 -23 14q-141 186 -141 446q0 259 141 446q10 13 23 13q8 0 14 -5.5t6 -13.5q0 -6 -3 -12q-55 -97 -82 -211.5t-27 -216.5q0 -104 27 -217.5t82 -210.5q3 -6 3 -12q0 -8 -6 -14t-14 -6z
" />
    <glyph glyph-name="Japan1.8125" unicode="&#x24a9;" 
d="M838 -66q-10 -14 -23 -14q-8 0 -14 6t-6 14q0 6 3 12q55 97 82 210.5t27 217.5q0 102 -27 216.5t-82 211.5q-3 6 -3 12q0 8 6 13.5t14 5.5q13 0 23 -13q141 -187 141 -446q0 -260 -141 -446zM597 159v253q0 94 -16.5 127.5t-69.5 33.5q-39 0 -74 -37.5t-35 -98.5v-278
q0 -33 -20 -51.5t-48 -18.5t-48.5 18.5t-20.5 51.5v435q0 36 20.5 55t49.5 19q27 0 47 -16.5t20 -44.5q21 28 63.5 43.5t87.5 15.5q93 0 137 -59.5t44 -163.5v-284q0 -33 -20 -51.5t-48 -18.5t-48.5 18.5t-20.5 51.5zM185 -80q-13 0 -23 14q-141 186 -141 446q0 259 141 446
q10 13 23 13q8 0 14 -5.5t6 -13.5q0 -6 -3 -12q-55 -97 -82 -211.5t-27 -216.5q0 -104 27 -217.5t82 -210.5q3 -6 3 -12q0 -8 -6 -14t-14 -6z" />
    <glyph glyph-name="Japan1.8126" unicode="&#x24aa;" 
d="M838 -66q-10 -14 -23 -14q-8 0 -14 6t-6 14q0 6 3 12q55 97 82 210.5t27 217.5q0 102 -27 216.5t-82 211.5q-3 6 -3 12q0 8 6 13.5t14 5.5q13 0 23 -13q141 -187 141 -446q0 -260 -141 -446zM500 85q-123 0 -197 83.5t-74 206.5t74 206.5t197 83.5q124 0 197.5 -83.5
t73.5 -206.5t-73.5 -206.5t-197.5 -83.5zM185 -80q-13 0 -23 14q-141 186 -141 446q0 259 141 446q10 13 23 13q8 0 14 -5.5t6 -13.5q0 -6 -3 -12q-55 -97 -82 -211.5t-27 -216.5q0 -104 27 -217.5t82 -210.5q3 -6 3 -12q0 -8 -6 -14t-14 -6zM499 167q60 0 93.5 57.5
t33.5 154.5q0 98 -30 152.5t-90 54.5t-95.5 -57.5t-35.5 -152.5q0 -100 31.5 -154.5t92.5 -54.5z" />
    <glyph glyph-name="Japan1.8127" unicode="&#x24ab;" 
d="M838 -66q-10 -14 -23 -14q-8 0 -14 6t-6 14q0 6 3 12q55 97 82 210.5t27 217.5q0 102 -27 216.5t-82 211.5q-3 6 -3 12q0 8 6 13.5t14 5.5q13 0 23 -13q141 -187 141 -446q0 -260 -141 -446zM268 -1v671q0 30 21 47.5t49 17.5t48.5 -18t20.5 -51q53 69 144 69
q77 0 132 -42.5t79.5 -105.5t24.5 -138q0 -135 -65 -213.5t-183 -78.5q-39 0 -66 8.5t-45 21.5t-21 14v-202q0 -33 -20.5 -51t-48.5 -18t-49 18t-21 51zM185 -80q-13 0 -23 14q-141 186 -141 446q0 259 141 446q10 13 23 13q8 0 14 -5.5t6 -13.5q0 -6 -3 -12
q-55 -97 -82 -211.5t-27 -216.5q0 -104 27 -217.5t82 -210.5q3 -6 3 -12q0 -8 -6 -14t-14 -6zM528 246q57 0 87 56t30 144q0 204 -115 204q-36 0 -69.5 -33t-43.5 -82q-10 -47 -10 -105q0 -68 15 -108q14 -36 43.5 -56t62.5 -20z" />
    <glyph glyph-name="Japan1.8128" unicode="&#x24ac;" 
d="M838 -66q-10 -14 -23 -14q-8 0 -14 6t-6 14q0 6 3 12q55 97 82 210.5t27 217.5q0 102 -27 216.5t-82 211.5q-3 6 -3 12q0 8 6 13.5t14 5.5q13 0 23 -13q141 -187 141 -446q0 -260 -141 -446zM606 2v212q-67 -56 -168 -56q-96 0 -163 69.5t-67 215.5q0 124 71.5 209.5
t178.5 85.5q85 0 148 -58v1q0 27 19.5 42.5t45.5 15.5q27 0 46 -16t19 -46v-675q0 -33 -19.5 -51.5t-45.5 -18.5q-27 0 -46 18.5t-19 51.5zM185 -80q-13 0 -23 14q-141 186 -141 446q0 259 141 446q10 13 23 13q8 0 14 -5.5t6 -13.5q0 -6 -3 -12q-55 -97 -82 -211.5
t-27 -216.5q0 -104 27 -217.5t82 -210.5q3 -6 3 -12q0 -8 -6 -14t-14 -6zM478 251q20 0 38 7t39 25.5t33.5 60t12.5 101.5q0 44 -5 86q-5 48 -36 82t-74 34q-134 0 -134 -212q0 -79 32 -131.5t94 -52.5z" />
    <glyph glyph-name="Japan1.8129" unicode="&#x24ad;" 
d="M838 -66q-10 -14 -23 -14q-8 0 -14 6t-6 14q0 6 3 12q55 97 82 210.5t27 217.5q0 102 -27 216.5t-82 211.5q-3 6 -3 12q0 8 6 13.5t14 5.5q13 0 23 -13q141 -187 141 -446q0 -260 -141 -446zM375 140v441q0 31 21 48t50 17q28 0 48.5 -15.5t20.5 -43.5v-3q18 28 52.5 46
t79.5 18q68 0 68 -51q0 -21 -13.5 -37t-34.5 -16h-5q-6 1 -19 1q-56 0 -92 -32t-36 -96v-277q0 -33 -21 -51t-49 -18t-49 18t-21 51zM185 -80q-13 0 -23 14q-141 186 -141 446q0 259 141 446q10 13 23 13q8 0 14 -5.5t6 -13.5q0 -6 -3 -12q-55 -97 -82 -211.5t-27 -216.5
q0 -104 27 -217.5t82 -210.5q3 -6 3 -12q0 -8 -6 -14t-14 -6z" />
    <glyph glyph-name="Japan1.8130" unicode="&#x24ae;" 
d="M838 -66q-10 -14 -23 -14q-8 0 -14 6t-6 14q0 6 3 12q55 97 82 210.5t27 217.5q0 102 -27 216.5t-82 211.5q-3 6 -3 12q0 8 6 13.5t14 5.5q13 0 23 -13q141 -187 141 -446q0 -260 -141 -446zM440 333q-49 10 -82 31.5t-45.5 47.5t-16 42.5t-3.5 33.5q0 86 60.5 131.5
t147.5 45.5q75 0 130.5 -34.5t55.5 -71.5q0 -20 -13.5 -34t-32.5 -14q-22 0 -40 22q-37 45 -96 45q-26 0 -44.5 -6t-26.5 -16.5t-11 -19t-3 -17.5q0 -16 8 -28.5t25.5 -20.5t30 -12t36.5 -9t29 -6q38 -10 64 -20.5t52.5 -30t40 -51.5t13.5 -76q0 -82 -61.5 -131.5
t-155.5 -49.5q-88 0 -154 39t-66 83q0 20 14 33t33 13q24 0 38 -20q16 -22 48 -36.5t71 -14.5q46 0 72 17t26 42q0 33 -31 53.5t-113 39.5zM185 -80q-13 0 -23 14q-141 186 -141 446q0 259 141 446q10 13 23 13q8 0 14 -5.5t6 -13.5q0 -6 -3 -12q-55 -97 -82 -211.5
t-27 -216.5q0 -104 27 -217.5t82 -210.5q3 -6 3 -12q0 -8 -6 -14t-14 -6z" />
    <glyph glyph-name="Japan1.8131" unicode="&#x24af;" 
d="M838 -66q-10 -14 -23 -14q-8 0 -14 6t-6 14q0 6 3 12q55 97 82 210.5t27 217.5q0 102 -27 216.5t-82 211.5q-3 6 -3 12q0 8 6 13.5t14 5.5q13 0 23 -13q141 -187 141 -446q0 -260 -141 -446zM408 151v332h-50q-23 0 -36 14t-13 34q0 19 13 33t36 14h50v114q0 33 20 52
t48 19t48.5 -19t20.5 -52v-114h75q23 0 36 -14.5t13 -34.5q0 -19 -12.5 -32.5t-35.5 -13.5h-76v-300q0 -27 1.5 -40t10.5 -23.5t27 -10.5q20 0 51 10q8 2 13 2q17 0 28.5 -12.5t11.5 -30.5q0 -35 -44.5 -54.5t-98.5 -19.5q-27 0 -48.5 5.5t-43 19.5t-33.5 45t-12 77z
M185 -80q-13 0 -23 14q-141 186 -141 446q0 259 141 446q10 13 23 13q8 0 14 -5.5t6 -13.5q0 -6 -3 -12q-55 -97 -82 -211.5t-27 -216.5q0 -104 27 -217.5t82 -210.5q3 -6 3 -12q0 -8 -6 -14t-14 -6z" />
    <glyph glyph-name="Japan1.8132" unicode="&#x24b0;" 
d="M838 -66q-10 -14 -23 -14q-8 0 -14 6t-6 14q0 6 3 12q55 97 82 210.5t27 217.5q0 102 -27 216.5t-82 211.5q-3 6 -3 12q0 8 6 13.5t14 5.5q13 0 23 -13q141 -187 141 -446q0 -260 -141 -446zM587 317v274q0 36 20.5 56t48.5 20q29 0 49.5 -20t20.5 -56v-437
q0 -33 -21 -51t-50 -18q-28 0 -48 16t-20 44q-21 -28 -63 -43.5t-87 -15.5q-97 0 -141 60.5t-44 182.5v262q0 36 20.5 56t49.5 20q28 0 48.5 -20t20.5 -56v-242q0 -101 15.5 -135.5t69.5 -34.5q40 0 75.5 38.5t35.5 99.5zM185 -80q-13 0 -23 14q-141 186 -141 446
q0 259 141 446q10 13 23 13q8 0 14 -5.5t6 -13.5q0 -6 -3 -12q-55 -97 -82 -211.5t-27 -216.5q0 -104 27 -217.5t82 -210.5q3 -6 3 -12q0 -8 -6 -14t-14 -6z" />
    <glyph glyph-name="Japan1.8133" unicode="&#x24b1;" 
d="M838 -66q-10 -14 -23 -14q-8 0 -14 6t-6 14q0 6 3 12q55 97 82 210.5t27 217.5q0 102 -27 216.5t-82 211.5q-3 6 -3 12q0 8 6 13.5t14 5.5q13 0 23 -13q141 -187 141 -446q0 -260 -141 -446zM428 154l-168 418q-6 16 -6 30q0 30 23.5 50.5t53.5 20.5q46 0 62 -43
l130 -342q5 -14 11 -14t12 16l106 355q8 27 42 27q20 0 36 -12t16 -33q0 -8 -3 -17l-150 -453q-10 -29 -32 -44.5t-49 -15.5t-50 15t-34 42zM185 -80q-13 0 -23 14q-141 186 -141 446q0 259 141 446q10 13 23 13q8 0 14 -5.5t6 -13.5q0 -6 -3 -12q-55 -97 -82 -211.5
t-27 -216.5q0 -104 27 -217.5t82 -210.5q3 -6 3 -12q0 -8 -6 -14t-14 -6z" />
    <glyph glyph-name="Japan1.8134" unicode="&#x24b2;" 
d="M838 -66q-10 -14 -23 -14q-8 0 -14 6t-6 14q0 6 3 12q55 97 82 210.5t27 217.5q0 102 -27 216.5t-82 211.5q-3 6 -3 12q0 8 6 13.5t14 5.5q13 0 23 -13q141 -187 141 -446q0 -260 -141 -446zM278 607q27 -126 48 -213q9 -38 31 -143q2 -5 4 -5q3 0 5 6q3 16 12 62t17 83
q8 39 20 98.5t17 84.5q6 33 29 50.5t51 17.5t51 -16.5t31 -45.5q10 -38 21 -94t17 -84q13 -55 36 -157q2 -9 6 -9t7 11q18 95 31 155l41 208q3 15 15.5 23.5t28.5 8.5q19 0 32.5 -12t13.5 -33q0 -14 -41.5 -201.5t-56.5 -250.5q-8 -34 -30.5 -53t-50.5 -19q-27 0 -49.5 18.5
t-31.5 52.5t-22 95t-22 96q-8 33 -17 80t-14 68q-1 10 -8 10q-6 0 -8 -9q-5 -25 -13 -71.5t-15 -79.5q-7 -30 -18 -87t-21 -98q-9 -35 -32.5 -54.5t-51.5 -19.5q-26 0 -48 18.5t-31 52.5q-107 394 -107 431q0 31 20 48.5t47 17.5q20 0 36 -10.5t20 -30.5zM185 -80
q-13 0 -23 14q-141 186 -141 446q0 259 141 446q10 13 23 13q8 0 14 -5.5t6 -13.5q0 -6 -3 -12q-55 -97 -82 -211.5t-27 -216.5q0 -104 27 -217.5t82 -210.5q3 -6 3 -12q0 -8 -6 -14t-14 -6z" />
    <glyph glyph-name="Japan1.8135" unicode="&#x24b3;" 
d="M838 -66q-10 -14 -23 -14q-8 0 -14 6t-6 14q0 6 3 12q55 97 82 210.5t27 217.5q0 102 -27 216.5t-82 211.5q-3 6 -3 12q0 8 6 13.5t14 5.5q13 0 23 -13q141 -187 141 -446q0 -260 -141 -446zM639 113l-148 190l-152 -192q-15 -18 -38 -18q-20 0 -36 12.5t-16 32.5t17 41
l158 194l-143 184q-17 23 -17 45q0 27 21.5 46t48.5 19q33 0 54 -27l122 -159l127 166q14 18 39 18q21 0 37.5 -13.5t16.5 -32.5q0 -17 -15 -37l-137 -171l155 -182q25 -29 25 -60t-24.5 -53t-53.5 -22q-26 0 -41 19zM185 -80q-13 0 -23 14q-141 186 -141 446q0 259 141 446
q10 13 23 13q8 0 14 -5.5t6 -13.5q0 -6 -3 -12q-55 -97 -82 -211.5t-27 -216.5q0 -104 27 -217.5t82 -210.5q3 -6 3 -12q0 -8 -6 -14t-14 -6z" />
    <glyph glyph-name="Japan1.8136" unicode="&#x24b4;" 
d="M838 -66q-10 -14 -23 -14q-8 0 -14 6t-6 14q0 6 3 12q55 97 82 210.5t27 217.5q0 102 -27 216.5t-82 211.5q-3 6 -3 12q0 8 6 13.5t14 5.5q13 0 23 -13q141 -187 141 -446q0 -260 -141 -446zM467 213l-186 429q-8 17 -8 37q0 33 24.5 53t56.5 20q47 0 63 -41l128 -331
q15 32 33 78t34 89.5t29.5 82t22 63t8.5 25.5q11 33 49 33q21 0 36.5 -13t15.5 -35q0 -26 -90.5 -244t-140.5 -320q-47 -95 -108.5 -140t-115.5 -45q-25 0 -39 15t-14 35t12.5 35.5t34.5 16.5q49 3 82.5 38.5t61.5 92.5q2 3 4.5 9.5t4.5 11.5zM185 -80q-13 0 -23 14
q-141 186 -141 446q0 259 141 446q10 13 23 13q8 0 14 -5.5t6 -13.5q0 -6 -3 -12q-55 -97 -82 -211.5t-27 -216.5q0 -104 27 -217.5t82 -210.5q3 -6 3 -12q0 -8 -6 -14t-14 -6z" />
    <glyph glyph-name="Japan1.8137" unicode="&#x24b5;" 
d="M838 -66q-10 -14 -23 -14q-8 0 -14 6t-6 14q0 6 3 12q55 97 82 210.5t27 217.5q0 102 -27 216.5t-82 211.5q-3 6 -3 12q0 8 6 13.5t14 5.5q13 0 23 -13q141 -187 141 -446q0 -260 -141 -446zM681 98h-350q-34 0 -54 20t-20 51q0 39 31 77l247 305q4 6 4 11q0 8 -9 8
l-203 -2h-1q-24 0 -37 13t-13 32t14 33.5t38 14.5h313q35 0 56.5 -17.5t21.5 -45.5q0 -36 -33 -75l-265 -311q-2 -2 -2 -7q0 -11 10 -11l249 2h1q25 0 38.5 -14.5t13.5 -34.5t-13.5 -34.5t-36.5 -14.5zM185 -80q-13 0 -23 14q-141 186 -141 446q0 259 141 446q10 13 23 13
q8 0 14 -5.5t6 -13.5q0 -6 -3 -12q-55 -97 -82 -211.5t-27 -216.5q0 -104 27 -217.5t82 -210.5q3 -6 3 -12q0 -8 -6 -14t-14 -6z" />
    <glyph glyph-name="Japan1.8184" 
d="M883 -47h-266q-22 0 -35 13.5t-13 32.5q0 23 18 39q18 17 70.5 64t79.5 75t38 40.5t22.5 35t11.5 43.5q0 24 -17 38.5t-43 14.5q-64 0 -89 -68q-9 -25 -44 -25q-18 0 -30.5 10t-12.5 28q0 14 10 35.5t30 45.5t59 41t89 17q78 0 127 -38t49 -101q0 -64 -38 -103.5
t-181 -135.5q-3 -3 -3 -6q0 -5 7 -5l93 3q11 0 33 1t34 1h1q26 0 41 -14.5t15 -33.5q0 -20 -14.5 -34t-41.5 -14zM102 -2l662 831q16 20 40 20q21 0 37 -14t16 -35q0 -20 -17 -41l-661 -829q-16 -20 -41 -20q-21 0 -36.5 14t-15.5 34q0 21 16 40zM174 404v280q0 11 -8 11
q-10 0 -45 -27q-12 -9 -26 -9q-16 0 -27.5 13t-11.5 30q0 23 20 34q70 44 109 73q25 19 57 19q27 0 45 -16.5t18 -48.5v-359q0 -33 -19.5 -52t-46.5 -19t-46 18.5t-19 52.5z" />
    <glyph glyph-name="Japan1.8185" 
d="M898 27h-24v-31q0 -28 -18.5 -44t-43.5 -16t-43.5 16t-18.5 44v31h-185q-32 0 -46.5 16t-14.5 41q0 34 18 57l209 261q26 32 74 32q29 0 49 -14.5t20 -40.5v-266h23q20 0 31 -13t11 -31q0 -17 -11 -29.5t-30 -12.5zM117 -2l662 831q16 20 40 20q21 0 37 -14t16 -35
q0 -20 -17 -41l-661 -829q-16 -20 -41 -20q-21 0 -36.5 14t-15.5 34q0 21 16 40zM174 404v280q0 11 -8 11q-10 0 -45 -27q-12 -9 -26 -9q-16 0 -27.5 13t-11.5 30q0 23 20 34q70 44 109 73q25 19 57 19q27 0 45 -16.5t18 -48.5v-359q0 -33 -19.5 -52t-46.5 -19t-46 18.5
t-19 52.5zM750 114v40q0 15 2 39.5t4.5 55.5t3.5 45v1q0 5 -5 5q-4 0 -9 -5q-3 -3 -26 -33.5t-41 -53.5q-54 -70 -70 -86q-1 -1 -1 -3q0 -5 7 -5h135z" />
    <glyph glyph-name="Japan1.8224" unicode="&#x24ea;" 
d="M980 380q0 -130 -64.5 -240.5t-175 -175t-240.5 -64.5t-240.5 64.5t-175 175t-64.5 240.5t64.5 240.5t175 175t240.5 64.5t240.5 -64.5t175 -175t64.5 -240.5zM922 379q0 175 -123.5 298.5t-298.5 123.5t-298.5 -123.5t-123.5 -298.5t123.5 -298t298.5 -123t298.5 123
t123.5 298zM499 58q-127 0 -203.5 87.5t-76.5 227.5q0 154 77.5 242.5t204.5 88.5q126 0 203 -89.5t77 -242.5q0 -143 -76.5 -228.5t-205.5 -85.5zM500 138q125 0 125 234q0 252 -124 252q-126 0 -126 -251q0 -235 125 -235z" />
    <glyph glyph-name="Japan1.8225" unicode="&#x216a;" 
d="M728 18v685q0 43 24.5 66.5t58.5 23.5t59.5 -24t25.5 -66v-685q0 -42 -25 -66t-58 -24q-35 0 -60 23.5t-25 66.5zM554 -41l-183 316l-192 -315q-20 -33 -52 -33q-22 0 -39 16t-17 39q0 18 12 37l218 348l-183 301q-14 22 -14 46q0 33 25.5 55.5t56.5 22.5q38 0 58 -34
l150 -263l157 270q16 28 50 28q24 0 42 -15.5t18 -39.5q0 -22 -15 -44l-184 -287l214 -333q24 -37 24 -69q0 -35 -26 -56.5t-59 -21.5q-42 0 -61 32z" />
    <glyph glyph-name="Japan1.8226" unicode="&#x216b;" 
d="M776 10v701q0 38 21.5 59.5t51.5 21.5t52 -21.5t22 -59.5v-701q0 -39 -21.5 -60.5t-51.5 -21.5t-52 22t-22 60zM569 10v701q0 38 21.5 59.5t50.5 21.5q31 0 53 -21.5t22 -59.5v-701q0 -39 -22 -60.5t-51 -21.5q-30 0 -52 21.5t-22 60.5zM402 -35l-117 287l-134 -298
q-12 -26 -47 -26q-24 0 -42.5 14t-18.5 38q0 16 9 34l167 339l-145 326q-10 23 -10 43q0 33 24.5 51.5t55.5 18.5q42 0 53 -27l107 -264l120 262q13 28 47 28q24 0 43 -14.5t19 -38.5q0 -15 -9 -33l-158 -298l159 -347q15 -33 15 -59q0 -35 -23 -54t-53 -19q-47 0 -62 37z
" />
    <glyph glyph-name="Japan1.8227" 
d="M838 -66q-10 -14 -23 -14q-8 0 -14 6t-6 14q0 6 3 12q55 97 82 210.5t27 217.5q0 102 -27 216.5t-82 211.5q-3 6 -3 12q0 8 6 13.5t14 5.5q13 0 23 -13q141 -187 141 -446q0 -260 -141 -446zM499 -36q-144 0 -217.5 109.5t-73.5 296.5q0 204 74 315.5t219 111.5
q143 0 217 -113t74 -316q0 -190 -73 -297t-220 -107zM185 -80q-13 0 -23 14q-141 186 -141 446q0 259 141 446q10 13 23 13q8 0 14 -5.5t6 -13.5q0 -6 -3 -12q-55 -97 -82 -211.5t-27 -216.5q0 -104 27 -217.5t82 -210.5q3 -6 3 -12q0 -8 -6 -14t-14 -6zM500 58
q42 0 69.5 26t39.5 75.5t16 96t4 112.5q0 55 -1.5 93t-5.5 80t-13 69.5t-22.5 51t-35 34.5t-50.5 11q-27 0 -48 -11.5t-34.5 -27.5t-23 -46t-14 -54t-7 -65t-3 -65.5t-0.5 -68.5q0 -65 4 -111.5t16 -96.5t39.5 -76.5t69.5 -26.5z" />
    <glyph glyph-name="Japan1.8228" 
d="M288 -12l-49 -66q-18 -22 -41 -22q-20 0 -35.5 14.5t-15.5 35.5q0 18 13 35l63 83q-64 112 -64 281q0 212 88 333.5t254 121.5q124 0 209 -74l49 67q16 22 41 22q21 0 37 -14.5t16 -34.5q0 -19 -14 -37l-63 -85q65 -115 65 -301q0 -201 -85.5 -315.5t-257.5 -114.5
q-124 0 -210 71zM329 216l302 406q-37 93 -130 93q-54 0 -91 -34t-55 -92.5t-25 -116t-7 -124.5q0 -80 6 -132zM668 501l-300 -404q40 -87 132 -87q176 0 176 337q0 93 -8 154z" />
    <glyph glyph-name="Japan1.8286" unicode="&#x2776;" 
d="M980 380q0 -130 -64.5 -240.5t-175 -175t-240.5 -64.5t-240.5 64.5t-175 175t-64.5 240.5t64.5 240.5t175 175t240.5 64.5t240.5 -64.5t175 -175t64.5 -240.5zM588 116v500q0 44 -21 65t-53 21q-46 0 -79 -30q-40 -35 -132 -96q-24 -17 -24 -45q0 -22 14 -40t34 -18
q8 0 22.5 7.5t29.5 18.5t28 21.5t23 19.5l10 8q1 1 2 1q3 0 3 -6v-427q0 -33 21.5 -52t50.5 -19q28 0 49.5 19t21.5 52z" />
    <glyph glyph-name="Japan1.8287" unicode="&#x2777;" 
d="M980 380q0 -130 -64.5 -240.5t-175 -175t-240.5 -64.5t-240.5 64.5t-175 175t-64.5 240.5t64.5 240.5t175 175t240.5 64.5t240.5 -64.5t175 -175t64.5 -240.5zM319 60h357q28 0 43 19t15 45q0 25 -15 44t-42 19q-155 0 -185 -1h-36q-31 0 -47 -1q-6 0 -6 2l1 1
q92 57 131 85q15 11 46 31.5t47 32.5t39.5 33.5t36 41t21.5 48t9 60.5q0 90 -66 138t-165 48q-62 0 -112.5 -21t-78.5 -52t-43 -60.5t-15 -51.5q0 -21 15.5 -33t36.5 -12q40 0 48 31q11 49 51 71.5t76 22.5q41 0 70.5 -21.5t29.5 -59.5q0 -13 -4 -26.5t-14 -28.5t-18 -26.5
t-23 -28t-22.5 -24.5t-24.5 -24.5t-20 -19.5q-31 -31 -92.5 -86.5t-84.5 -79.5q-23 -25 -23 -58q0 -25 16 -41.5t48 -16.5z" />
    <glyph glyph-name="Japan1.8288" unicode="&#x2778;" 
d="M980 380q0 -130 -64.5 -240.5t-175 -175t-240.5 -64.5t-240.5 64.5t-175 175t-64.5 240.5t64.5 240.5t175 175t240.5 64.5t240.5 -64.5t175 -175t64.5 -240.5zM462 453h-27q-25 0 -38.5 -15t-13.5 -35t14 -35.5t39 -15.5q6 0 19 0.5t20 0.5h2q46 0 83.5 -26.5t37.5 -63.5
q0 -48 -35.5 -76.5t-95.5 -28.5q-106 0 -141 52q-11 18 -33 18q-20 0 -35 -14t-15 -35q0 -40 62 -85.5t169 -45.5q120 0 199 56t79 154q0 56 -37.5 99.5t-94.5 55.5q52 22 77 60.5t25 77.5q0 71 -64 113.5t-155 42.5q-66 0 -116 -18.5t-74 -44t-35 -46.5t-11 -33
q0 -19 14.5 -32.5t33.5 -13.5q28 0 44 30q31 61 116 61q43 0 70.5 -18.5t27.5 -47.5q0 -43 -33.5 -67t-77.5 -24z" />
    <glyph glyph-name="Japan1.8289" unicode="&#x2779;" 
d="M980 380q0 -130 -64.5 -240.5t-175 -175t-240.5 -64.5t-240.5 64.5t-175 175t-64.5 240.5t64.5 240.5t175 175t240.5 64.5t240.5 -64.5t175 -175t64.5 -240.5zM632 141v31h52q24 0 37.5 16t13.5 38q0 23 -14 39.5t-38 16.5h-51v371q0 30 -19.5 45t-48.5 15q-51 0 -76 -33
l-282 -379q-21 -27 -21 -65q0 -64 71 -64h241v-31q0 -33 20 -51.5t48 -18.5q27 0 47 18.5t20 51.5zM496 281h-171q-3 0 -3 2t94 131l90 122q1 0 1 -5q-11 -165 -11 -189v-61z" />
    <glyph glyph-name="Japan1.8290" unicode="&#x277a;" 
d="M980 380q0 -130 -64.5 -240.5t-175 -175t-240.5 -64.5t-240.5 64.5t-175 175t-64.5 240.5t64.5 240.5t175 175t240.5 64.5t240.5 -64.5t175 -175t64.5 -240.5zM658 688h-274q-37 0 -55.5 -15t-23.5 -54l-31 -241v-7q0 -21 15 -31t35 -10q28 0 37 12q18 21 49.5 34
t62.5 13q55 0 91.5 -32t36.5 -84t-39 -88t-103 -36q-33 0 -71 11t-47 25q-14 19 -35 19q-19 0 -34.5 -14.5t-15.5 -34.5q0 -45 69 -78.5t149 -33.5q124 0 200.5 60t76.5 159q0 57 -23.5 100t-61.5 66.5t-80.5 35t-87.5 11.5q-63 0 -115 -25l13 109q4 6 5 6h258
q29 0 44.5 17.5t15.5 42.5t-16.5 44t-44.5 19z" />
    <glyph glyph-name="Japan1.8291" unicode="&#x277b;" 
d="M980 380q0 -130 -64.5 -240.5t-175 -175t-240.5 -64.5t-240.5 64.5t-175 175t-64.5 240.5t64.5 240.5t175 175t240.5 64.5t240.5 -64.5t175 -175t64.5 -240.5zM377 453q10 81 53.5 124t93.5 43q78 0 115 -33q13 -12 28 -12q18 0 32.5 15t14.5 34q0 8 -4 17.5t-17.5 22.5
t-33.5 23t-56.5 17t-83.5 7q-126 0 -208 -90.5t-82 -274.5q0 -57 13 -105.5t41.5 -92.5t83.5 -69.5t130 -25.5q118 0 185 64t67 162q0 91 -59 153.5t-173 62.5q-86 0 -140 -42zM498 139q-55 0 -87 40.5t-32 89.5q0 68 31.5 103.5t85.5 35.5q50 0 75.5 -35t25.5 -91
q0 -143 -99 -143z" />
    <glyph glyph-name="Japan1.8292" unicode="&#x277c;" 
d="M980 380q0 -130 -64.5 -240.5t-175 -175t-240.5 -64.5t-240.5 64.5t-175 175t-64.5 240.5t64.5 240.5t175 175t240.5 64.5t240.5 -64.5t175 -175t64.5 -240.5zM689 678h-356q-30 0 -46.5 -21t-16.5 -50t17 -49.5t47 -20.5h278q5 0 5 -4q0 -3 -2 -5q-93 -135 -266 -405
q-8 -12 -8 -27q0 -22 18.5 -38t41.5 -16q29 0 46 27q148 237 288 448q28 43 28 83q0 35 -20 56.5t-54 21.5z" />
    <glyph glyph-name="Japan1.8293" unicode="&#x277d;" 
d="M980 380q0 -130 -64.5 -240.5t-175 -175t-240.5 -64.5t-240.5 64.5t-175 175t-64.5 240.5t64.5 240.5t175 175t240.5 64.5t240.5 -64.5t175 -175t64.5 -240.5zM633 404q43 17 73 51t30 86q0 80 -66.5 124t-166.5 44q-98 0 -170.5 -43.5t-72.5 -126.5q0 -54 36.5 -91.5
t72.5 -49.5q-134 -57 -134 -161q0 -93 74 -140t190 -47t190 52t74 149q0 52 -39 92.5t-91 60.5zM542 452q-83 28 -118 54t-35 57q0 30 32 49t79 19q43 0 75 -26t32 -65q0 -28 -20 -51.5t-45 -36.5zM457 352q1 -1 4.5 -2.5t9 -3t9.5 -3.5q70 -27 108 -54.5t38 -67.5
q0 -86 -128 -86q-55 0 -93 29.5t-38 81.5q0 44 30 71t60 35z" />
    <glyph glyph-name="Japan1.8294" unicode="&#x277e;" 
d="M980 380q0 -130 -64.5 -240.5t-175 -175t-240.5 -64.5t-240.5 64.5t-175 175t-64.5 240.5t64.5 240.5t175 175t240.5 64.5t240.5 -64.5t175 -175t64.5 -240.5zM625 306q-9 -79 -54 -121t-111 -42q-72 0 -107 25q-13 9 -28 9q-19 0 -32 -13t-13 -32q0 -38 55.5 -63.5
t137.5 -25.5q137 0 216.5 93t79.5 260q0 57 -13 108t-41 98t-81 75t-124 28q-115 0 -187.5 -69.5t-72.5 -172.5q0 -87 58 -146t161 -59q96 0 156 48zM498 361q-39 0 -69.5 35t-30.5 85q0 57 30.5 98.5t81.5 41.5q48 0 78 -38.5t30 -89.5q0 -62 -34 -97t-86 -35z" />
    <glyph glyph-name="Japan1.8295" 
d="M811 1v720q0 34 18.5 53t42.5 19q26 0 44.5 -19t18.5 -53v-720q0 -34 -18.5 -53t-43.5 -19t-43.5 19t-18.5 53zM650 1v720q0 34 18 53t43 19q26 0 44.5 -19t18.5 -53v-720q0 -34 -18.5 -53t-43.5 -19t-43.5 19t-18.5 53zM486 1v720q0 34 18 53t43 19q26 0 44.5 -19
t18.5 -53v-720q0 -34 -18.5 -53t-43.5 -19t-43.5 19t-18.5 53zM325 -31l-88 261l-112 -271q-12 -30 -48 -30q-21 0 -36 12.5t-15 34.5q0 15 7 32l149 343l-127 345q-6 17 -6 32q0 29 19.5 46.5t45.5 17.5q22 0 40 -13t26 -38l76 -233l83 254q10 30 45 30q23 0 40 -14t17 -38
q0 -13 -6 -28l-125 -314l133 -358q9 -24 9 -43q0 -33 -20.5 -51.5t-47.5 -18.5q-20 0 -36.5 11t-22.5 31z" />
    <glyph glyph-name="Japan1.8296" 
d="M807 136l85 621q2 17 16 26.5t31 9.5q20 0 33.5 -12.5t13.5 -35.5q0 -9 -1 -13l-113 -703q-8 -48 -32.5 -74t-55.5 -26q-32 0 -57.5 28t-33.5 78l-102 677q-1 5 -1 14q0 31 19 49t44 18q22 0 38.5 -13.5t19.5 -38.5l77 -605q3 -15 10 -15q8 0 9 15zM445 -5v734
q0 30 17.5 46.5t42.5 16.5t43 -16.5t18 -46.5v-734q0 -31 -18 -48.5t-43 -17.5q-24 0 -42 17.5t-18 48.5zM302 -36l-92 292l-102 -302q-9 -26 -44 -26q-20 0 -34 12t-14 33q0 13 6 30l141 360l-120 340q-5 12 -5 28q0 28 19 45t45 17q47 0 60 -47l73 -246l78 261
q10 32 45 32q20 0 35.5 -13t15.5 -35q0 -11 -4 -22l-119 -333l129 -356q8 -21 8 -42q0 -31 -19 -48t-45 -17q-19 0 -35 10t-22 27z" />
    <glyph glyph-name="Japan1.8297" 
d="M776 152l96 603q6 37 48 37q22 0 39 -13.5t17 -36.5q0 -7 -1 -11l-123 -686q-10 -55 -39 -85.5t-64 -30.5q-36 0 -65.5 31.5t-40.5 90.5l-122 656q-2 12 -2 17q0 32 22 50.5t51 18.5q26 0 45.5 -14.5t23.5 -42.5l93 -584q2 -11 11 -11t11 11zM377 -39l-114 283l-121 -290
q-10 -26 -44 -26q-23 0 -40.5 14.5t-17.5 39.5q0 17 8 33l153 337l-134 328q-10 23 -10 43q0 33 23 51.5t52 18.5q38 0 48 -27l98 -260l110 260q10 26 44 26q23 0 41 -14.5t18 -37.5q0 -13 -8 -31l-146 -303l153 -350q14 -31 14 -58q0 -34 -21 -52.5t-49 -18.5q-43 0 -57 34
z" />
    <glyph glyph-name="Japan1.8298" unicode="&#x217a;" 
d="M854 712q0 -40 -29 -68.5t-68 -28.5t-67.5 28.5t-28.5 68.5q0 39 28.5 67.5t67.5 28.5t68 -28.5t29 -67.5zM680 7v453q0 39 22.5 61t53.5 22t54.5 -22.5t23.5 -60.5v-453q0 -38 -22.5 -59t-53.5 -21q-32 0 -55 21t-23 59zM515 -49l-144 204l-148 -206q-14 -21 -39 -21
q-20 0 -36 14.5t-16 35.5t15 40l161 213l-140 192q-16 22 -16 45q0 30 23 53t52 23q34 0 57 -33l119 -165l119 173q15 23 42 23q21 0 38 -15.5t17 -36.5q0 -15 -12 -32l-141 -189l149 -194q27 -36 27 -69q0 -34 -25 -56t-55 -22q-31 0 -47 23z" />
    <glyph glyph-name="Japan1.8299" unicode="&#x217b;" 
d="M851 623q-36 0 -62.5 26t-26.5 63q0 35 27 61.5t62 26.5t61.5 -26.5t26.5 -61.5q0 -37 -26 -63t-62 -26zM636 623q-36 0 -62.5 26t-26.5 63q0 35 27 61.5t62 26.5t61.5 -26.5t26.5 -61.5q0 -37 -26 -63t-62 -26zM782 0v466q0 36 20.5 56t49.5 20t50.5 -20t21.5 -56v-466
q0 -34 -21 -53t-50 -19t-50 19t-21 53zM567 0v466q0 36 20.5 56t48.5 20q29 0 50.5 -20t21.5 -56v-466q0 -34 -21 -53t-49 -19q-29 0 -50 19t-21 53zM426 -48l-138 199l-138 -202q-14 -20 -38 -20q-21 0 -37.5 15t-16.5 37q0 17 13 36l158 212l-141 197q-16 21 -16 46
q0 30 22.5 50.5t50.5 20.5q32 0 49 -26l116 -169l123 177q11 17 34 17q21 0 37 -13.5t16 -34.5q0 -17 -13 -36l-136 -189l159 -209q19 -24 19 -51q0 -33 -25 -56t-55 -23q-27 0 -43 22z" />
    <glyph glyph-name="Japan1.8300" 
d="M880 629q-32 0 -56 24t-24 58q0 32 24 56.5t56 24.5t56.5 -24.5t24.5 -56.5q0 -33 -24.5 -57.5t-56.5 -24.5zM706 629q-32 0 -56 24t-24 58q0 32 24 56.5t56 24.5t56.5 -24.5t24.5 -56.5q0 -33 -24.5 -57.5t-56.5 -24.5zM534 629q-32 0 -56 24t-24 58q0 32 24 56.5
t56 24.5t56.5 -24.5t24.5 -56.5q0 -33 -24.5 -57.5t-56.5 -24.5zM821 -2v479q0 31 18 48t43 17t43.5 -17t18.5 -48v-479q0 -33 -18 -52t-43 -19t-43.5 19t-18.5 52zM647 -2v479q0 31 18 48t43 17t43.5 -17t18.5 -48v-479q0 -33 -18 -52t-43 -19t-43.5 19t-18.5 52zM475 -1
v478q0 31 18 48t43 17t43.5 -17t18.5 -48v-478q0 -34 -18 -53t-43 -19t-43.5 19t-18.5 53zM347 -47l-114 198l-120 -209q-8 -14 -30 -14q-20 0 -36.5 12t-16.5 32q0 17 13 37l136 216l-128 212q-13 22 -13 42q0 27 21 45t47 18q31 0 47 -26l103 -174l106 183q11 17 32 17
q18 0 32 -11.5t14 -30.5q0 -15 -10 -32l-124 -202l136 -227q15 -23 15 -48q0 -27 -20 -45t-45 -18q-30 0 -45 25z" />
    <glyph glyph-name="Japan1.8301" 
d="M580 711q0 -33 -23.5 -56.5t-56.5 -23.5q-32 0 -55.5 23.5t-23.5 56.5q0 32 23.5 55.5t55.5 23.5t56 -23.5t24 -55.5zM718 -10l-132 447q-6 19 -6 36q0 33 20 51t46 18q21 0 37 -11t21 -31l92 -367q3 -13 8 -13q4 0 9 15l92 377q8 31 41 31q17 0 29.5 -11.5t12.5 -32.5
q0 -9 -3 -20l-127 -486q-8 -32 -27 -48.5t-43 -16.5q-23 0 -42 16t-28 46zM441 -1v478q0 31 17.5 48t42.5 17q24 0 42.5 -17.5t18.5 -47.5v-478q0 -34 -18 -53t-42 -19q-25 0 -43 19t-18 53zM321 -47l-109 199l-113 -210q-7 -14 -29 -14q-18 0 -32.5 12t-14.5 32q0 16 12 38
l127 217l-121 210q-12 23 -12 41q0 27 20 45.5t44 18.5q30 0 44 -26l98 -174l100 183q9 17 31 17q17 0 30 -11t13 -30q0 -15 -10 -32l-118 -201l130 -228q14 -25 14 -48q0 -29 -19 -47t-42 -18q-29 0 -43 26z" />
    <glyph glyph-name="Japan1.8302" 
d="M677 -17l-159 464q-5 14 -5 29q0 32 24.5 50.5t55.5 18.5q47 0 58 -36l114 -380q3 -13 11 -13q6 0 11 15l94 385q7 29 45 29q22 0 38.5 -12t16.5 -33q0 -4 -2 -14l-142 -500q-7 -27 -30 -41.5t-51 -14.5q-26 0 -48 13.5t-31 39.5zM400 -50l-130 200l-138 -208
q-10 -15 -33 -15q-21 0 -38.5 13t-17.5 34q0 18 14 38l156 217l-140 200q-17 24 -17 48q0 28 21.5 46.5t48.5 18.5q30 0 46 -24l122 -178l110 185q11 17 33 17q20 0 35.5 -13t15.5 -34q0 -18 -13 -38l-123 -195l145 -205q22 -30 22 -60q0 -31 -23 -50t-51 -19q-30 0 -45 22z
" />
  </font>
</defs>
</svg>
